<svg width="360" height="800" viewBox="0 0 360 800" fill="none" xmlns="http://www.w3.org/2000/svg">
<rect width="360" height="800" fill="url(#paint0_linear_9_23)" fill-opacity="0.75"/>
<g filter="url(#filter0_d_9_23)">
<path d="M44 259C44 247.954 52.9543 239 64 239H297C308.046 239 317 247.954 317 259V541C317 552.046 308.046 561 297 561H64C52.9543 561 44 552.046 44 541V259Z" fill="#F7ECF4"/>
</g>
<rect x="70" y="293" width="221" height="36" rx="10" fill="#FAF7FD" fill-opacity="0.04"/>
<rect x="70.5" y="293.5" width="220" height="35" rx="9.5" stroke="black" stroke-opacity="0.37"/>
<rect x="123" y="252" width="114" height="22" fill="#6A6271" fill-opacity="0.9"/>
<rect x="256" y="349" width="23" height="22" fill="#BE66CC"/>
<rect x="70" y="342" width="221" height="36" rx="10" fill="#FAF7FD" fill-opacity="0.04"/>
<rect x="70.5" y="342.5" width="220" height="35" rx="9.5" stroke="black" stroke-opacity="0.37"/>
<path d="M69 401C69 395.477 73.4772 391 79 391H280C285.523 391 290 395.477 290 401V409C290 414.523 285.523 419 280 419H79C73.4772 419 69 414.523 69 409V401Z" fill="url(#paint1_linear_9_23)"/>
<path d="M70.5 442C70.5 436.753 74.7533 432.5 80 432.5H281C286.247 432.5 290.5 436.753 290.5 442V450C290.5 455.247 286.247 459.5 281 459.5H80C74.7533 459.5 70.5 455.247 70.5 450V442Z" stroke="black" stroke-opacity="0.37"/>
<path d="M93.5852 356.273V365H92.5284V357.21H88.1307V365H87.0739V356.273H93.5852ZM97.5067 365.153C97.092 365.153 96.7156 365.075 96.3775 364.919C96.0394 364.76 95.771 364.531 95.5721 364.233C95.3732 363.932 95.2738 363.568 95.2738 363.142C95.2738 362.767 95.3477 362.463 95.4954 362.23C95.6431 361.994 95.8406 361.81 96.0877 361.676C96.3349 361.543 96.6076 361.443 96.9059 361.378C97.207 361.31 97.5096 361.256 97.8136 361.216C98.2113 361.165 98.5337 361.126 98.7809 361.101C99.0309 361.072 99.2127 361.026 99.3263 360.96C99.4428 360.895 99.5011 360.781 99.5011 360.619V360.585C99.5011 360.165 99.386 359.838 99.1559 359.605C98.9286 359.372 98.5835 359.256 98.1204 359.256C97.6403 359.256 97.2638 359.361 96.9911 359.571C96.7184 359.781 96.5266 360.006 96.4158 360.244L95.4613 359.903C95.6317 359.506 95.859 359.196 96.1431 358.974C96.43 358.75 96.7425 358.594 97.0806 358.506C97.4215 358.415 97.7567 358.369 98.0863 358.369C98.2965 358.369 98.538 358.395 98.8107 358.446C99.0863 358.494 99.3519 358.595 99.6076 358.749C99.8661 358.902 100.081 359.134 100.251 359.443C100.422 359.753 100.507 360.168 100.507 360.688V365H99.5011V364.114H99.4499C99.3817 364.256 99.2681 364.408 99.109 364.57C98.9499 364.732 98.7383 364.869 98.4741 364.983C98.2099 365.097 97.8874 365.153 97.5067 365.153ZM97.6602 364.25C98.0579 364.25 98.3931 364.172 98.6658 364.016C98.9414 363.859 99.1488 363.658 99.288 363.411C99.43 363.163 99.5011 362.903 99.5011 362.631V361.71C99.4585 361.761 99.3647 361.808 99.2198 361.851C99.0778 361.891 98.913 361.926 98.7255 361.957C98.5408 361.986 98.3604 362.011 98.1843 362.034C98.011 362.054 97.8704 362.071 97.7624 362.085C97.5011 362.119 97.2567 362.175 97.0295 362.251C96.805 362.325 96.6232 362.437 96.484 362.588C96.3477 362.736 96.2795 362.937 96.2795 363.193C96.2795 363.543 96.4087 363.807 96.6673 363.986C96.9286 364.162 97.2596 364.25 97.6602 364.25ZM102.342 367.455V358.455H103.314V359.494H103.433C103.507 359.381 103.609 359.236 103.74 359.06C103.874 358.881 104.064 358.722 104.311 358.582C104.561 358.44 104.899 358.369 105.325 358.369C105.876 358.369 106.362 358.507 106.783 358.783C107.203 359.058 107.531 359.449 107.767 359.955C108.003 360.46 108.121 361.057 108.121 361.744C108.121 362.438 108.003 363.038 107.767 363.547C107.531 364.053 107.205 364.445 106.787 364.723C106.369 364.999 105.888 365.136 105.342 365.136C104.922 365.136 104.585 365.067 104.332 364.928C104.08 364.786 103.885 364.625 103.749 364.446C103.612 364.264 103.507 364.114 103.433 363.994H103.348V367.455H102.342ZM103.331 361.727C103.331 362.222 103.403 362.658 103.548 363.036C103.693 363.411 103.905 363.705 104.183 363.918C104.462 364.128 104.803 364.233 105.206 364.233C105.626 364.233 105.977 364.122 106.259 363.901C106.543 363.676 106.756 363.375 106.898 362.997C107.043 362.616 107.115 362.193 107.115 361.727C107.115 361.267 107.044 360.852 106.902 360.483C106.763 360.111 106.551 359.817 106.267 359.601C105.986 359.382 105.632 359.273 105.206 359.273C104.797 359.273 104.453 359.376 104.175 359.584C103.896 359.788 103.686 360.075 103.544 360.445C103.402 360.811 103.331 361.239 103.331 361.727ZM112.314 365.136C111.723 365.136 111.205 364.996 110.759 364.714C110.315 364.433 109.969 364.04 109.719 363.534C109.472 363.028 109.348 362.437 109.348 361.761C109.348 361.08 109.472 360.484 109.719 359.976C109.969 359.467 110.315 359.072 110.759 358.791C111.205 358.51 111.723 358.369 112.314 358.369C112.905 358.369 113.422 358.51 113.865 358.791C114.311 359.072 114.658 359.467 114.905 359.976C115.155 360.484 115.28 361.08 115.28 361.761C115.28 362.437 115.155 363.028 114.905 363.534C114.658 364.04 114.311 364.433 113.865 364.714C113.422 364.996 112.905 365.136 112.314 365.136ZM112.314 364.233C112.763 364.233 113.132 364.118 113.422 363.888C113.712 363.658 113.926 363.355 114.065 362.98C114.205 362.605 114.274 362.199 114.274 361.761C114.274 361.324 114.205 360.916 114.065 360.538C113.926 360.161 113.712 359.855 113.422 359.622C113.132 359.389 112.763 359.273 112.314 359.273C111.865 359.273 111.496 359.389 111.206 359.622C110.916 359.855 110.702 360.161 110.562 360.538C110.423 360.916 110.354 361.324 110.354 361.761C110.354 362.199 110.423 362.605 110.562 362.98C110.702 363.355 110.916 363.658 111.206 363.888C111.496 364.118 111.865 364.233 112.314 364.233ZM116.235 365V364.062H116.474C116.67 364.062 116.833 364.024 116.964 363.947C117.095 363.868 117.2 363.73 117.279 363.534C117.362 363.335 117.424 363.06 117.467 362.707C117.512 362.352 117.545 361.901 117.565 361.352L117.684 358.455H122.048V365H121.042V359.392H118.639L118.537 361.727C118.514 362.264 118.466 362.737 118.392 363.146C118.321 363.553 118.211 363.893 118.064 364.169C117.919 364.445 117.725 364.652 117.484 364.791C117.243 364.93 116.94 365 116.576 365H116.235ZM124.762 360.824H126.637C127.404 360.824 127.991 361.018 128.397 361.408C128.804 361.797 129.007 362.29 129.007 362.886C129.007 363.278 128.916 363.635 128.734 363.956C128.552 364.274 128.285 364.528 127.933 364.719C127.581 364.906 127.149 365 126.637 365H123.893V358.455H124.899V364.062H126.637C127.035 364.062 127.362 363.957 127.618 363.747C127.873 363.537 128.001 363.267 128.001 362.938C128.001 362.591 127.873 362.308 127.618 362.089C127.362 361.871 127.035 361.761 126.637 361.761H124.762V360.824Z" fill="black" fill-opacity="0.4"/>
<path d="M92.392 311.278V312.216H88.7955V311.278H92.392ZM86.7159 313.273H87.8068C87.9006 313.886 88.108 314.358 88.429 314.688C88.75 315.017 89.2642 315.182 89.9716 315.182C90.4716 315.182 90.8892 315.041 91.2244 314.76C91.5625 314.479 91.8153 314.107 91.983 313.643C92.1534 313.18 92.2386 312.676 92.2386 312.131V311.159C92.2386 310.557 92.1435 310.027 91.9531 309.57C91.7656 309.109 91.4943 308.751 91.1392 308.496C90.7869 308.237 90.3636 308.108 89.8693 308.108C89.4375 308.108 89.0795 308.185 88.7955 308.338C88.5114 308.491 88.2898 308.712 88.1307 308.999C87.9716 309.286 87.8636 309.631 87.8068 310.034H86.7159C86.7727 309.477 86.9247 308.983 87.1719 308.551C87.4219 308.116 87.7699 307.776 88.2159 307.528C88.6648 307.278 89.2159 307.153 89.8693 307.153C90.5795 307.153 91.1932 307.32 91.7102 307.652C92.2273 307.982 92.6264 308.446 92.9077 309.045C93.1889 309.642 93.3295 310.341 93.3295 311.142V312.148C93.3295 312.949 93.1903 313.648 92.9119 314.244C92.6335 314.838 92.2429 315.3 91.7401 315.629C91.2372 315.956 90.6477 316.119 89.9716 316.119C89.2784 316.119 88.7017 315.994 88.2415 315.744C87.7841 315.491 87.4304 315.151 87.1804 314.722C86.9332 314.29 86.7784 313.807 86.7159 313.273ZM94.3917 316V315.062H94.6303C94.8263 315.062 94.9897 315.024 95.1204 314.947C95.2511 314.868 95.3562 314.73 95.4357 314.534C95.5181 314.335 95.5806 314.06 95.6232 313.707C95.6687 313.352 95.7013 312.901 95.7212 312.352L95.8406 309.455H100.204V316H99.1985V310.392H96.7951L96.6928 312.727C96.6701 313.264 96.6218 313.737 96.5479 314.146C96.4769 314.553 96.3675 314.893 96.2198 315.169C96.0749 315.445 95.8817 315.652 95.6403 315.791C95.3988 315.93 95.0962 316 94.7326 316H94.3917ZM104.794 316.136C104.163 316.136 103.619 315.997 103.162 315.719C102.707 315.438 102.356 315.045 102.109 314.543C101.865 314.037 101.743 313.449 101.743 312.778C101.743 312.108 101.865 311.517 102.109 311.006C102.356 310.491 102.7 310.091 103.14 309.804C103.583 309.514 104.1 309.369 104.691 309.369C105.032 309.369 105.369 309.426 105.701 309.54C106.034 309.653 106.336 309.838 106.609 310.094C106.882 310.347 107.099 310.682 107.261 311.099C107.423 311.517 107.504 312.031 107.504 312.642V313.068H102.458V312.199H106.481C106.481 311.83 106.407 311.5 106.26 311.21C106.115 310.92 105.907 310.692 105.637 310.524C105.37 310.357 105.055 310.273 104.691 310.273C104.291 310.273 103.944 310.372 103.652 310.571C103.362 310.767 103.139 311.023 102.983 311.338C102.826 311.653 102.748 311.991 102.748 312.352V312.932C102.748 313.426 102.833 313.845 103.004 314.189C103.177 314.53 103.417 314.79 103.724 314.969C104.031 315.145 104.387 315.233 104.794 315.233C105.058 315.233 105.297 315.196 105.51 315.122C105.725 315.045 105.912 314.932 106.068 314.781C106.224 314.628 106.345 314.437 106.43 314.21L107.402 314.483C107.299 314.812 107.127 315.102 106.886 315.352C106.645 315.599 106.346 315.793 105.991 315.932C105.636 316.068 105.237 316.136 104.794 316.136ZM109.034 316V309.455H110.039V312.301H110.704L113.056 309.455H114.352L111.71 312.608L114.386 316H113.091L110.943 313.239H110.039V316H109.034ZM115.104 310.392V309.455H120.422V310.392H118.275V316H117.269V310.392H115.104ZM121.889 318.455V309.455H122.861V310.494H122.98C123.054 310.381 123.156 310.236 123.287 310.06C123.42 309.881 123.611 309.722 123.858 309.582C124.108 309.44 124.446 309.369 124.872 309.369C125.423 309.369 125.909 309.507 126.33 309.783C126.75 310.058 127.078 310.449 127.314 310.955C127.55 311.46 127.668 312.057 127.668 312.744C127.668 313.438 127.55 314.038 127.314 314.547C127.078 315.053 126.751 315.445 126.334 315.723C125.916 315.999 125.435 316.136 124.889 316.136C124.469 316.136 124.132 316.067 123.879 315.928C123.626 315.786 123.432 315.625 123.295 315.446C123.159 315.264 123.054 315.114 122.98 314.994H122.895V318.455H121.889ZM122.878 312.727C122.878 313.222 122.95 313.658 123.095 314.036C123.24 314.411 123.452 314.705 123.73 314.918C124.009 315.128 124.349 315.233 124.753 315.233C125.173 315.233 125.524 315.122 125.805 314.901C126.089 314.676 126.303 314.375 126.445 313.997C126.589 313.616 126.662 313.193 126.662 312.727C126.662 312.267 126.591 311.852 126.449 311.483C126.31 311.111 126.098 310.817 125.814 310.601C125.533 310.382 125.179 310.273 124.753 310.273C124.344 310.273 124 310.376 123.722 310.584C123.443 310.788 123.233 311.075 123.091 311.445C122.949 311.811 122.878 312.239 122.878 312.727ZM131.861 316.136C131.27 316.136 130.751 315.996 130.305 315.714C129.862 315.433 129.516 315.04 129.266 314.534C129.018 314.028 128.895 313.437 128.895 312.761C128.895 312.08 129.018 311.484 129.266 310.976C129.516 310.467 129.862 310.072 130.305 309.791C130.751 309.51 131.27 309.369 131.861 309.369C132.452 309.369 132.969 309.51 133.412 309.791C133.858 310.072 134.205 310.467 134.452 310.976C134.702 311.484 134.827 312.08 134.827 312.761C134.827 313.437 134.702 314.028 134.452 314.534C134.205 315.04 133.858 315.433 133.412 315.714C132.969 315.996 132.452 316.136 131.861 316.136ZM131.861 315.233C132.31 315.233 132.679 315.118 132.969 314.888C133.259 314.658 133.473 314.355 133.612 313.98C133.751 313.605 133.821 313.199 133.821 312.761C133.821 312.324 133.751 311.916 133.612 311.538C133.473 311.161 133.259 310.855 132.969 310.622C132.679 310.389 132.31 310.273 131.861 310.273C131.412 310.273 131.043 310.389 130.753 310.622C130.463 310.855 130.249 311.161 130.109 311.538C129.97 311.916 129.901 312.324 129.901 312.761C129.901 313.199 129.97 313.605 130.109 313.98C130.249 314.355 130.463 314.658 130.753 314.888C131.043 315.118 131.412 315.233 131.861 315.233ZM140.743 312.267V313.205H137.129V312.267H140.743ZM137.368 309.455V316H136.362V309.455H137.368ZM141.51 309.455V316H140.504V309.455H141.51ZM147.727 312.267V313.205H144.113V312.267H147.727ZM144.352 309.455V316H143.346V309.455H144.352ZM148.494 309.455V316H147.488V309.455H148.494ZM152.257 316.153C151.842 316.153 151.466 316.075 151.127 315.919C150.789 315.76 150.521 315.531 150.322 315.233C150.123 314.932 150.024 314.568 150.024 314.142C150.024 313.767 150.098 313.463 150.245 313.23C150.393 312.994 150.591 312.81 150.838 312.676C151.085 312.543 151.358 312.443 151.656 312.378C151.957 312.31 152.26 312.256 152.564 312.216C152.961 312.165 153.284 312.126 153.531 312.101C153.781 312.072 153.963 312.026 154.076 311.96C154.193 311.895 154.251 311.781 154.251 311.619V311.585C154.251 311.165 154.136 310.838 153.906 310.605C153.679 310.372 153.333 310.256 152.87 310.256C152.39 310.256 152.014 310.361 151.741 310.571C151.468 310.781 151.277 311.006 151.166 311.244L150.211 310.903C150.382 310.506 150.609 310.196 150.893 309.974C151.18 309.75 151.493 309.594 151.831 309.506C152.172 309.415 152.507 309.369 152.836 309.369C153.047 309.369 153.288 309.395 153.561 309.446C153.836 309.494 154.102 309.595 154.358 309.749C154.616 309.902 154.831 310.134 155.001 310.443C155.172 310.753 155.257 311.168 155.257 311.688V316H154.251V315.114H154.2C154.132 315.256 154.018 315.408 153.859 315.57C153.7 315.732 153.488 315.869 153.224 315.983C152.96 316.097 152.637 316.153 152.257 316.153ZM152.41 315.25C152.808 315.25 153.143 315.172 153.416 315.016C153.691 314.859 153.899 314.658 154.038 314.411C154.18 314.163 154.251 313.903 154.251 313.631V312.71C154.208 312.761 154.115 312.808 153.97 312.851C153.828 312.891 153.663 312.926 153.475 312.957C153.291 312.986 153.11 313.011 152.934 313.034C152.761 313.054 152.62 313.071 152.512 313.085C152.251 313.119 152.007 313.175 151.779 313.251C151.555 313.325 151.373 313.437 151.234 313.588C151.098 313.736 151.029 313.937 151.029 314.193C151.029 314.543 151.159 314.807 151.417 314.986C151.679 315.162 152.01 315.25 152.41 315.25ZM161.03 316V310.375H159.291C158.899 310.375 158.591 310.466 158.366 310.648C158.142 310.83 158.03 311.08 158.03 311.398C158.03 311.71 158.131 311.956 158.332 312.135C158.537 312.314 158.817 312.403 159.172 312.403H161.286V313.341H159.172C158.729 313.341 158.347 313.263 158.026 313.107C157.705 312.95 157.457 312.727 157.284 312.438C157.111 312.145 157.024 311.798 157.024 311.398C157.024 310.994 157.115 310.648 157.297 310.358C157.479 310.068 157.739 309.845 158.077 309.689C158.418 309.533 158.822 309.455 159.291 309.455H161.984V316H161.03ZM156.666 316L158.524 312.744H159.615L157.757 316H156.666ZM167.206 316V309.455H172.353V316H171.348V310.392H168.211V316H167.206ZM176.849 316.136C176.258 316.136 175.74 315.996 175.294 315.714C174.85 315.433 174.504 315.04 174.254 314.534C174.007 314.028 173.883 313.437 173.883 312.761C173.883 312.08 174.007 311.484 174.254 310.976C174.504 310.467 174.85 310.072 175.294 309.791C175.74 309.51 176.258 309.369 176.849 309.369C177.44 309.369 177.957 309.51 178.4 309.791C178.846 310.072 179.193 310.467 179.44 310.976C179.69 311.484 179.815 312.08 179.815 312.761C179.815 313.437 179.69 314.028 179.44 314.534C179.193 315.04 178.846 315.433 178.4 315.714C177.957 315.996 177.44 316.136 176.849 316.136ZM176.849 315.233C177.298 315.233 177.667 315.118 177.957 314.888C178.247 314.658 178.461 314.355 178.6 313.98C178.74 313.605 178.809 313.199 178.809 312.761C178.809 312.324 178.74 311.916 178.6 311.538C178.461 311.161 178.247 310.855 177.957 310.622C177.667 310.389 177.298 310.273 176.849 310.273C176.4 310.273 176.031 310.389 175.741 310.622C175.451 310.855 175.237 311.161 175.098 311.538C174.958 311.916 174.889 312.324 174.889 312.761C174.889 313.199 174.958 313.605 175.098 313.98C175.237 314.355 175.451 314.658 175.741 314.888C176.031 315.118 176.4 315.233 176.849 315.233ZM186.396 309.455V316H185.39V309.455H186.396ZM186.004 312.574V313.511C185.776 313.597 185.55 313.672 185.326 313.737C185.102 313.8 184.866 313.849 184.619 313.886C184.371 313.92 184.1 313.938 183.805 313.938C183.063 313.938 182.468 313.737 182.019 313.337C181.573 312.936 181.35 312.335 181.35 311.534V309.438H182.356V311.534C182.356 311.869 182.42 312.145 182.548 312.361C182.675 312.577 182.849 312.737 183.067 312.842C183.286 312.947 183.532 313 183.805 313C184.231 313 184.616 312.962 184.96 312.885C185.306 312.805 185.654 312.702 186.004 312.574ZM187.35 310.392V309.455H192.668V310.392H190.521V316H189.515V310.392H187.35ZM195.722 316.153C195.307 316.153 194.93 316.075 194.592 315.919C194.254 315.76 193.986 315.531 193.787 315.233C193.588 314.932 193.489 314.568 193.489 314.142C193.489 313.767 193.563 313.463 193.71 313.23C193.858 312.994 194.055 312.81 194.303 312.676C194.55 312.543 194.822 312.443 195.121 312.378C195.422 312.31 195.724 312.256 196.028 312.216C196.426 312.165 196.749 312.126 196.996 312.101C197.246 312.072 197.428 312.026 197.541 311.96C197.658 311.895 197.716 311.781 197.716 311.619V311.585C197.716 311.165 197.601 310.838 197.371 310.605C197.143 310.372 196.798 310.256 196.335 310.256C195.855 310.256 195.479 310.361 195.206 310.571C194.933 310.781 194.741 311.006 194.631 311.244L193.676 310.903C193.847 310.506 194.074 310.196 194.358 309.974C194.645 309.75 194.957 309.594 195.295 309.506C195.636 309.415 195.972 309.369 196.301 309.369C196.511 309.369 196.753 309.395 197.026 309.446C197.301 309.494 197.567 309.595 197.822 309.749C198.081 309.902 198.295 310.134 198.466 310.443C198.636 310.753 198.722 311.168 198.722 311.688V316H197.716V315.114H197.665C197.597 315.256 197.483 315.408 197.324 315.57C197.165 315.732 196.953 315.869 196.689 315.983C196.425 316.097 196.102 316.153 195.722 316.153ZM195.875 315.25C196.273 315.25 196.608 315.172 196.881 315.016C197.156 314.859 197.364 314.658 197.503 314.411C197.645 314.163 197.716 313.903 197.716 313.631V312.71C197.673 312.761 197.58 312.808 197.435 312.851C197.293 312.891 197.128 312.926 196.94 312.957C196.756 312.986 196.575 313.011 196.399 313.034C196.226 313.054 196.085 313.071 195.977 313.085C195.716 313.119 195.472 313.175 195.244 313.251C195.02 313.325 194.838 313.437 194.699 313.588C194.563 313.736 194.494 313.937 194.494 314.193C194.494 314.543 194.624 314.807 194.882 314.986C195.143 315.162 195.474 315.25 195.875 315.25Z" fill="black" fill-opacity="0.4"/>
<path d="M163.057 410V401.273H166.108C166.716 401.273 167.217 401.378 167.612 401.588C168.007 401.795 168.301 402.075 168.494 402.428C168.688 402.777 168.784 403.165 168.784 403.591C168.784 403.966 168.717 404.276 168.584 404.52C168.453 404.764 168.28 404.957 168.064 405.099C167.851 405.241 167.619 405.347 167.369 405.415V405.5C167.636 405.517 167.905 405.611 168.175 405.781C168.445 405.952 168.67 406.196 168.852 406.514C169.034 406.832 169.125 407.222 169.125 407.682C169.125 408.119 169.026 408.513 168.827 408.862C168.628 409.212 168.314 409.489 167.885 409.693C167.456 409.898 166.898 410 166.21 410H163.057ZM164.114 409.062H166.21C166.901 409.062 167.391 408.929 167.68 408.662C167.973 408.392 168.119 408.065 168.119 407.682C168.119 407.386 168.044 407.114 167.893 406.864C167.743 406.611 167.528 406.409 167.25 406.259C166.972 406.105 166.642 406.028 166.261 406.028H164.114V409.062ZM164.114 405.108H166.074C166.392 405.108 166.679 405.045 166.935 404.92C167.193 404.795 167.398 404.619 167.548 404.392C167.702 404.165 167.778 403.898 167.778 403.591C167.778 403.207 167.645 402.882 167.378 402.615C167.111 402.345 166.688 402.21 166.108 402.21H164.114V405.108ZM173.384 410.136C172.793 410.136 172.275 409.996 171.829 409.714C171.386 409.433 171.039 409.04 170.789 408.534C170.542 408.028 170.418 407.437 170.418 406.761C170.418 406.08 170.542 405.484 170.789 404.976C171.039 404.467 171.386 404.072 171.829 403.791C172.275 403.51 172.793 403.369 173.384 403.369C173.975 403.369 174.492 403.51 174.935 403.791C175.381 404.072 175.728 404.467 175.975 404.976C176.225 405.484 176.35 406.08 176.35 406.761C176.35 407.437 176.225 408.028 175.975 408.534C175.728 409.04 175.381 409.433 174.935 409.714C174.492 409.996 173.975 410.136 173.384 410.136ZM173.384 409.233C173.833 409.233 174.202 409.118 174.492 408.888C174.782 408.658 174.996 408.355 175.136 407.98C175.275 407.605 175.344 407.199 175.344 406.761C175.344 406.324 175.275 405.916 175.136 405.538C174.996 405.161 174.782 404.855 174.492 404.622C174.202 404.389 173.833 404.273 173.384 404.273C172.935 404.273 172.566 404.389 172.276 404.622C171.987 404.855 171.772 405.161 171.633 405.538C171.494 405.916 171.424 406.324 171.424 406.761C171.424 407.199 171.494 407.605 171.633 407.98C171.772 408.355 171.987 408.658 172.276 408.888C172.566 409.118 172.935 409.233 173.384 409.233ZM178.891 408.517L182.044 403.455H183.203V410H182.198V404.938L179.061 410H177.885V403.455H178.891V408.517ZM181.38 401.273H182.317C182.317 401.733 182.158 402.109 181.84 402.402C181.522 402.695 181.09 402.841 180.544 402.841C180.007 402.841 179.58 402.695 179.262 402.402C178.946 402.109 178.789 401.733 178.789 401.273H179.726C179.726 401.494 179.787 401.689 179.909 401.857C180.034 402.024 180.246 402.108 180.544 402.108C180.843 402.108 181.056 402.024 181.184 401.857C181.314 401.689 181.38 401.494 181.38 401.273ZM184.155 404.392V403.455H189.473V404.392H187.325V410H186.32V404.392H184.155ZM191.946 408.517L195.099 403.455H196.258V410H195.252V404.938L192.116 410H190.94V403.455H191.946V408.517Z" fill="white"/>
<path d="M118.057 451V442.273H121.108C121.716 442.273 122.217 442.378 122.612 442.588C123.007 442.795 123.301 443.075 123.494 443.428C123.688 443.777 123.784 444.165 123.784 444.591C123.784 444.966 123.717 445.276 123.584 445.52C123.453 445.764 123.28 445.957 123.064 446.099C122.851 446.241 122.619 446.347 122.369 446.415V446.5C122.636 446.517 122.905 446.611 123.175 446.781C123.445 446.952 123.67 447.196 123.852 447.514C124.034 447.832 124.125 448.222 124.125 448.682C124.125 449.119 124.026 449.513 123.827 449.862C123.628 450.212 123.314 450.489 122.885 450.693C122.456 450.898 121.898 451 121.21 451H118.057ZM119.114 450.062H121.21C121.901 450.062 122.391 449.929 122.68 449.662C122.973 449.392 123.119 449.065 123.119 448.682C123.119 448.386 123.044 448.114 122.893 447.864C122.743 447.611 122.528 447.409 122.25 447.259C121.972 447.105 121.642 447.028 121.261 447.028H119.114V450.062ZM119.114 446.108H121.074C121.392 446.108 121.679 446.045 121.935 445.92C122.193 445.795 122.398 445.619 122.548 445.392C122.702 445.165 122.778 444.898 122.778 444.591C122.778 444.207 122.645 443.882 122.378 443.615C122.111 443.345 121.688 443.21 121.108 443.21H119.114V446.108ZM128.384 451.136C127.793 451.136 127.275 450.996 126.829 450.714C126.386 450.433 126.039 450.04 125.789 449.534C125.542 449.028 125.418 448.437 125.418 447.761C125.418 447.08 125.542 446.484 125.789 445.976C126.039 445.467 126.386 445.072 126.829 444.791C127.275 444.51 127.793 444.369 128.384 444.369C128.975 444.369 129.492 444.51 129.935 444.791C130.381 445.072 130.728 445.467 130.975 445.976C131.225 446.484 131.35 447.08 131.35 447.761C131.35 448.437 131.225 449.028 130.975 449.534C130.728 450.04 130.381 450.433 129.935 450.714C129.492 450.996 128.975 451.136 128.384 451.136ZM128.384 450.233C128.833 450.233 129.202 450.118 129.492 449.888C129.782 449.658 129.996 449.355 130.136 448.98C130.275 448.605 130.344 448.199 130.344 447.761C130.344 447.324 130.275 446.916 130.136 446.538C129.996 446.161 129.782 445.855 129.492 445.622C129.202 445.389 128.833 445.273 128.384 445.273C127.935 445.273 127.566 445.389 127.276 445.622C126.987 445.855 126.772 446.161 126.633 446.538C126.494 446.916 126.424 447.324 126.424 447.761C126.424 448.199 126.494 448.605 126.633 448.98C126.772 449.355 126.987 449.658 127.276 449.888C127.566 450.118 127.935 450.233 128.384 450.233ZM135.544 451.136C134.931 451.136 134.402 450.991 133.959 450.702C133.516 450.412 133.175 450.013 132.936 449.504C132.698 448.996 132.578 448.415 132.578 447.761C132.578 447.097 132.701 446.51 132.945 446.001C133.192 445.49 133.536 445.091 133.976 444.804C134.419 444.514 134.936 444.369 135.527 444.369C135.988 444.369 136.402 444.455 136.772 444.625C137.141 444.795 137.444 445.034 137.679 445.341C137.915 445.648 138.061 446.006 138.118 446.415H137.113C137.036 446.116 136.865 445.852 136.601 445.622C136.34 445.389 135.988 445.273 135.544 445.273C135.152 445.273 134.809 445.375 134.513 445.58C134.221 445.781 133.992 446.067 133.827 446.436C133.665 446.803 133.584 447.233 133.584 447.727C133.584 448.233 133.664 448.673 133.823 449.048C133.985 449.423 134.212 449.714 134.505 449.922C134.8 450.129 135.147 450.233 135.544 450.233C135.806 450.233 136.043 450.188 136.256 450.097C136.469 450.006 136.65 449.875 136.797 449.705C136.945 449.534 137.05 449.33 137.113 449.091H138.118C138.061 449.477 137.921 449.825 137.696 450.135C137.475 450.442 137.181 450.686 136.814 450.868C136.451 451.047 136.027 451.136 135.544 451.136ZM142.248 451.136C141.634 451.136 141.105 450.991 140.662 450.702C140.219 450.412 139.878 450.013 139.64 449.504C139.401 448.996 139.282 448.415 139.282 447.761C139.282 447.097 139.404 446.51 139.648 446.001C139.895 445.49 140.239 445.091 140.679 444.804C141.123 444.514 141.64 444.369 142.23 444.369C142.691 444.369 143.105 444.455 143.475 444.625C143.844 444.795 144.147 445.034 144.382 445.341C144.618 445.648 144.765 446.006 144.821 446.415H143.816C143.739 446.116 143.569 445.852 143.304 445.622C143.043 445.389 142.691 445.273 142.248 445.273C141.855 445.273 141.512 445.375 141.216 445.58C140.924 445.781 140.695 446.067 140.53 446.436C140.368 446.803 140.287 447.233 140.287 447.727C140.287 448.233 140.367 448.673 140.526 449.048C140.688 449.423 140.915 449.714 141.208 449.922C141.503 450.129 141.85 450.233 142.248 450.233C142.509 450.233 142.746 450.188 142.959 450.097C143.172 450.006 143.353 449.875 143.5 449.705C143.648 449.534 143.753 449.33 143.816 449.091H144.821C144.765 449.477 144.624 449.825 144.4 450.135C144.178 450.442 143.884 450.686 143.517 450.868C143.154 451.047 142.73 451.136 142.248 451.136ZM145.776 445.392V444.455H151.094V445.392H148.946V451H147.941V445.392H145.776ZM154.147 451.153C153.733 451.153 153.356 451.075 153.018 450.919C152.68 450.76 152.412 450.531 152.213 450.233C152.014 449.932 151.914 449.568 151.914 449.142C151.914 448.767 151.988 448.463 152.136 448.23C152.284 447.994 152.481 447.81 152.728 447.676C152.975 447.543 153.248 447.443 153.547 447.378C153.848 447.31 154.15 447.256 154.454 447.216C154.852 447.165 155.174 447.126 155.422 447.101C155.672 447.072 155.853 447.026 155.967 446.96C156.083 446.895 156.142 446.781 156.142 446.619V446.585C156.142 446.165 156.027 445.838 155.797 445.605C155.569 445.372 155.224 445.256 154.761 445.256C154.281 445.256 153.904 445.361 153.632 445.571C153.359 445.781 153.167 446.006 153.056 446.244L152.102 445.903C152.272 445.506 152.5 445.196 152.784 444.974C153.071 444.75 153.383 444.594 153.721 444.506C154.062 444.415 154.397 444.369 154.727 444.369C154.937 444.369 155.179 444.395 155.451 444.446C155.727 444.494 155.993 444.595 156.248 444.749C156.507 444.902 156.721 445.134 156.892 445.443C157.062 445.753 157.147 446.168 157.147 446.688V451H156.142V450.114H156.091C156.022 450.256 155.909 450.408 155.75 450.57C155.591 450.732 155.379 450.869 155.115 450.983C154.85 451.097 154.528 451.153 154.147 451.153ZM154.301 450.25C154.699 450.25 155.034 450.172 155.306 450.016C155.582 449.859 155.789 449.658 155.929 449.411C156.071 449.163 156.142 448.903 156.142 448.631V447.71C156.099 447.761 156.005 447.808 155.86 447.851C155.718 447.891 155.554 447.926 155.366 447.957C155.181 447.986 155.001 448.011 154.825 448.034C154.652 448.054 154.511 448.071 154.403 448.085C154.142 448.119 153.897 448.175 153.67 448.251C153.446 448.325 153.264 448.437 153.125 448.588C152.988 448.736 152.92 448.937 152.92 449.193C152.92 449.543 153.049 449.807 153.308 449.986C153.569 450.162 153.9 450.25 154.301 450.25ZM163.364 447.267V448.205H159.75V447.267H163.364ZM159.989 444.455V451H158.983V444.455H159.989ZM164.131 444.455V451H163.125V444.455H164.131ZM168.626 451.136C168.036 451.136 167.517 450.996 167.071 450.714C166.628 450.433 166.281 450.04 166.031 449.534C165.784 449.028 165.661 448.437 165.661 447.761C165.661 447.08 165.784 446.484 166.031 445.976C166.281 445.467 166.628 445.072 167.071 444.791C167.517 444.51 168.036 444.369 168.626 444.369C169.217 444.369 169.734 444.51 170.178 444.791C170.624 445.072 170.97 445.467 171.217 445.976C171.467 446.484 171.592 447.08 171.592 447.761C171.592 448.437 171.467 449.028 171.217 449.534C170.97 450.04 170.624 450.433 170.178 450.714C169.734 450.996 169.217 451.136 168.626 451.136ZM168.626 450.233C169.075 450.233 169.445 450.118 169.734 449.888C170.024 449.658 170.239 449.355 170.378 448.98C170.517 448.605 170.587 448.199 170.587 447.761C170.587 447.324 170.517 446.916 170.378 446.538C170.239 446.161 170.024 445.855 169.734 445.622C169.445 445.389 169.075 445.273 168.626 445.273C168.178 445.273 167.808 445.389 167.518 445.622C167.229 445.855 167.014 446.161 166.875 446.538C166.736 446.916 166.666 447.324 166.666 447.761C166.666 448.199 166.736 448.605 166.875 448.98C167.014 449.355 167.229 449.658 167.518 449.888C167.808 450.118 168.178 450.233 168.626 450.233ZM173.127 451V444.455H175.804C176.508 444.455 177.068 444.614 177.483 444.932C177.897 445.25 178.105 445.67 178.105 446.193C178.105 446.591 177.987 446.899 177.751 447.118C177.515 447.334 177.213 447.48 176.843 447.557C177.085 447.591 177.319 447.676 177.547 447.812C177.777 447.949 177.967 448.136 178.118 448.375C178.268 448.611 178.343 448.901 178.343 449.244C178.343 449.58 178.258 449.879 178.088 450.143C177.917 450.408 177.673 450.616 177.355 450.77C177.037 450.923 176.656 451 176.213 451H173.127ZM174.082 450.08H176.213C176.559 450.08 176.831 449.997 177.027 449.832C177.223 449.668 177.321 449.443 177.321 449.159C177.321 448.821 177.223 448.555 177.027 448.362C176.831 448.166 176.559 448.068 176.213 448.068H174.082V450.08ZM174.082 447.199H175.804C176.074 447.199 176.305 447.162 176.498 447.088C176.691 447.011 176.839 446.903 176.941 446.764C177.047 446.622 177.099 446.455 177.099 446.261C177.099 445.986 176.984 445.77 176.754 445.614C176.524 445.455 176.207 445.375 175.804 445.375H174.082V447.199ZM180.871 449.517L184.025 444.455H185.184V451H184.178V445.938L181.042 451H179.866V444.455H180.871V449.517ZM186.135 445.392V444.455H191.453V445.392H189.306V451H188.3V445.392H186.135ZM193.79 446.824H195.665C196.432 446.824 197.018 447.018 197.425 447.408C197.831 447.797 198.034 448.29 198.034 448.886C198.034 449.278 197.943 449.635 197.761 449.956C197.58 450.274 197.313 450.528 196.96 450.719C196.608 450.906 196.176 451 195.665 451H192.92V444.455H193.926V450.062H195.665C196.063 450.062 196.389 449.957 196.645 449.747C196.901 449.537 197.028 449.267 197.028 448.938C197.028 448.591 196.901 448.308 196.645 448.089C196.389 447.871 196.063 447.761 195.665 447.761H193.79V446.824ZM202.94 451V444.455H208.088V451H207.082V445.392H203.946V451H202.94ZM211.85 451.153C211.436 451.153 211.059 451.075 210.721 450.919C210.383 450.76 210.115 450.531 209.916 450.233C209.717 449.932 209.618 449.568 209.618 449.142C209.618 448.767 209.691 448.463 209.839 448.23C209.987 447.994 210.184 447.81 210.431 447.676C210.679 447.543 210.951 447.443 211.25 447.378C211.551 447.31 211.853 447.256 212.157 447.216C212.555 447.165 212.877 447.126 213.125 447.101C213.375 447.072 213.556 447.026 213.67 446.96C213.787 446.895 213.845 446.781 213.845 446.619V446.585C213.845 446.165 213.73 445.838 213.5 445.605C213.272 445.372 212.927 445.256 212.464 445.256C211.984 445.256 211.608 445.361 211.335 445.571C211.062 445.781 210.87 446.006 210.76 446.244L209.805 445.903C209.975 445.506 210.203 445.196 210.487 444.974C210.774 444.75 211.086 444.594 211.424 444.506C211.765 444.415 212.1 444.369 212.43 444.369C212.64 444.369 212.882 444.395 213.154 444.446C213.43 444.494 213.696 444.595 213.951 444.749C214.21 444.902 214.424 445.134 214.595 445.443C214.765 445.753 214.85 446.168 214.85 446.688V451H213.845V450.114H213.794C213.725 450.256 213.612 450.408 213.453 450.57C213.294 450.732 213.082 450.869 212.818 450.983C212.554 451.097 212.231 451.153 211.85 451.153ZM212.004 450.25C212.402 450.25 212.737 450.172 213.01 450.016C213.285 449.859 213.493 449.658 213.632 449.411C213.774 449.163 213.845 448.903 213.845 448.631V447.71C213.802 447.761 213.708 447.808 213.564 447.851C213.422 447.891 213.257 447.926 213.069 447.957C212.885 447.986 212.704 448.011 212.528 448.034C212.355 448.054 212.214 448.071 212.106 448.085C211.845 448.119 211.6 448.175 211.373 448.251C211.149 448.325 210.967 448.437 210.828 448.588C210.691 448.736 210.623 448.937 210.623 449.193C210.623 449.543 210.752 449.807 211.011 449.986C211.272 450.162 211.603 450.25 212.004 450.25ZM216.686 453.455V444.455H217.658V445.494H217.777C217.851 445.381 217.953 445.236 218.084 445.06C218.217 444.881 218.408 444.722 218.655 444.582C218.905 444.44 219.243 444.369 219.669 444.369C220.22 444.369 220.706 444.507 221.126 444.783C221.547 445.058 221.875 445.449 222.111 445.955C222.347 446.46 222.464 447.057 222.464 447.744C222.464 448.438 222.347 449.038 222.111 449.547C221.875 450.053 221.548 450.445 221.131 450.723C220.713 450.999 220.232 451.136 219.686 451.136C219.266 451.136 218.929 451.067 218.676 450.928C218.423 450.786 218.229 450.625 218.092 450.446C217.956 450.264 217.851 450.114 217.777 449.994H217.692V453.455H216.686ZM217.675 447.727C217.675 448.222 217.747 448.658 217.892 449.036C218.037 449.411 218.249 449.705 218.527 449.918C218.805 450.128 219.146 450.233 219.55 450.233C219.97 450.233 220.321 450.122 220.602 449.901C220.886 449.676 221.099 449.375 221.241 448.997C221.386 448.616 221.459 448.193 221.459 447.727C221.459 447.267 221.388 446.852 221.246 446.483C221.107 446.111 220.895 445.817 220.611 445.601C220.33 445.382 219.976 445.273 219.55 445.273C219.141 445.273 218.797 445.376 218.518 445.584C218.24 445.788 218.03 446.075 217.888 446.445C217.746 446.811 217.675 447.239 217.675 447.727ZM226.658 451.136C226.067 451.136 225.548 450.996 225.102 450.714C224.659 450.433 224.312 450.04 224.062 449.534C223.815 449.028 223.692 448.437 223.692 447.761C223.692 447.08 223.815 446.484 224.062 445.976C224.312 445.467 224.659 445.072 225.102 444.791C225.548 444.51 226.067 444.369 226.658 444.369C227.249 444.369 227.766 444.51 228.209 444.791C228.655 445.072 229.001 445.467 229.249 445.976C229.499 446.484 229.624 447.08 229.624 447.761C229.624 448.437 229.499 449.028 229.249 449.534C229.001 450.04 228.655 450.433 228.209 450.714C227.766 450.996 227.249 451.136 226.658 451.136ZM226.658 450.233C227.107 450.233 227.476 450.118 227.766 449.888C228.055 449.658 228.27 449.355 228.409 448.98C228.548 448.605 228.618 448.199 228.618 447.761C228.618 447.324 228.548 446.916 228.409 446.538C228.27 446.161 228.055 445.855 227.766 445.622C227.476 445.389 227.107 445.273 226.658 445.273C226.209 445.273 225.839 445.389 225.55 445.622C225.26 445.855 225.045 446.161 224.906 446.538C224.767 446.916 224.697 447.324 224.697 447.761C224.697 448.199 224.767 448.605 224.906 448.98C225.045 449.355 225.26 449.658 225.55 449.888C225.839 450.118 226.209 450.233 226.658 450.233ZM230.579 451V450.062H230.818C231.014 450.062 231.177 450.024 231.308 449.947C231.439 449.868 231.544 449.73 231.623 449.534C231.706 449.335 231.768 449.06 231.811 448.707C231.856 448.352 231.889 447.901 231.909 447.352L232.028 444.455H236.392V451H235.386V445.392H232.983L232.88 447.727C232.858 448.264 232.809 448.737 232.735 449.146C232.664 449.553 232.555 449.893 232.407 450.169C232.262 450.445 232.069 450.652 231.828 450.791C231.586 450.93 231.284 451 230.92 451H230.579ZM239.106 446.824H240.981C241.748 446.824 242.335 447.018 242.741 447.408C243.147 447.797 243.35 448.29 243.35 448.886C243.35 449.278 243.26 449.635 243.078 449.956C242.896 450.274 242.629 450.528 242.277 450.719C241.924 450.906 241.493 451 240.981 451H238.237V444.455H239.243V450.062H240.981C241.379 450.062 241.706 449.957 241.961 449.747C242.217 449.537 242.345 449.267 242.345 448.938C242.345 448.591 242.217 448.308 241.961 448.089C241.706 447.871 241.379 447.761 240.981 447.761H239.106V446.824Z" fill="black" fill-opacity="0.64"/>
<path d="M136.649 270V261.273H137.945V262.591H138.036C138.195 262.159 138.482 261.809 138.899 261.54C139.316 261.271 139.786 261.136 140.308 261.136C140.407 261.136 140.53 261.138 140.678 261.142C140.825 261.146 140.937 261.152 141.013 261.159V262.523C140.967 262.511 140.863 262.494 140.7 262.472C140.541 262.445 140.373 262.432 140.195 262.432C139.77 262.432 139.392 262.521 139.058 262.699C138.729 262.873 138.467 263.116 138.274 263.426C138.085 263.733 137.99 264.083 137.99 264.477V270H136.649ZM145.996 270.182C145.155 270.182 144.429 269.996 143.82 269.625C143.214 269.25 142.746 268.727 142.416 268.057C142.09 267.383 141.928 266.598 141.928 265.705C141.928 264.811 142.09 264.023 142.416 263.341C142.746 262.655 143.204 262.121 143.791 261.739C144.382 261.352 145.071 261.159 145.859 261.159C146.314 261.159 146.763 261.235 147.206 261.386C147.649 261.538 148.053 261.784 148.416 262.125C148.78 262.462 149.07 262.909 149.286 263.466C149.501 264.023 149.609 264.708 149.609 265.523V266.091H142.882V264.932H148.246C148.246 264.439 148.147 264 147.95 263.614C147.757 263.227 147.481 262.922 147.121 262.699C146.765 262.475 146.344 262.364 145.859 262.364C145.325 262.364 144.863 262.496 144.473 262.761C144.087 263.023 143.789 263.364 143.581 263.784C143.373 264.205 143.268 264.655 143.268 265.136V265.909C143.268 266.568 143.382 267.127 143.609 267.585C143.84 268.04 144.161 268.386 144.57 268.625C144.979 268.86 145.454 268.977 145.996 268.977C146.348 268.977 146.666 268.928 146.95 268.83C147.238 268.727 147.486 268.576 147.695 268.375C147.903 268.17 148.064 267.917 148.178 267.614L149.473 267.977C149.337 268.417 149.107 268.803 148.786 269.136C148.464 269.466 148.066 269.723 147.592 269.909C147.119 270.091 146.587 270.182 145.996 270.182ZM157.831 263.227L156.626 263.568C156.551 263.367 156.439 263.172 156.291 262.983C156.147 262.79 155.95 262.631 155.7 262.506C155.45 262.381 155.13 262.318 154.74 262.318C154.206 262.318 153.761 262.441 153.405 262.688C153.053 262.93 152.876 263.239 152.876 263.614C152.876 263.947 152.998 264.21 153.24 264.403C153.482 264.597 153.861 264.758 154.376 264.886L155.672 265.205C156.452 265.394 157.034 265.684 157.416 266.074C157.799 266.46 157.99 266.958 157.99 267.568C157.99 268.068 157.846 268.515 157.558 268.909C157.274 269.303 156.876 269.614 156.365 269.841C155.854 270.068 155.259 270.182 154.581 270.182C153.691 270.182 152.954 269.989 152.371 269.602C151.787 269.216 151.418 268.652 151.263 267.909L152.536 267.591C152.657 268.061 152.886 268.413 153.223 268.648C153.564 268.883 154.009 269 154.558 269C155.183 269 155.679 268.867 156.047 268.602C156.418 268.333 156.604 268.011 156.604 267.636C156.604 267.333 156.498 267.08 156.286 266.875C156.073 266.667 155.748 266.511 155.308 266.409L153.854 266.068C153.054 265.879 152.467 265.585 152.092 265.188C151.721 264.786 151.536 264.284 151.536 263.682C151.536 263.189 151.674 262.754 151.95 262.375C152.231 261.996 152.611 261.699 153.092 261.483C153.577 261.267 154.126 261.159 154.74 261.159C155.604 261.159 156.282 261.348 156.774 261.727C157.27 262.106 157.623 262.606 157.831 263.227ZM163.804 261.273V262.409H159.281V261.273H163.804ZM160.599 259.182H161.94V267.5C161.94 267.879 161.995 268.163 162.105 268.352C162.219 268.538 162.363 268.663 162.537 268.727C162.715 268.788 162.902 268.818 163.099 268.818C163.247 268.818 163.368 268.811 163.463 268.795C163.558 268.777 163.634 268.761 163.69 268.75L163.963 269.955C163.872 269.989 163.745 270.023 163.582 270.057C163.42 270.095 163.213 270.114 162.963 270.114C162.584 270.114 162.213 270.032 161.849 269.869C161.49 269.706 161.19 269.458 160.952 269.125C160.717 268.792 160.599 268.371 160.599 267.864V259.182ZM165.821 270V261.273H167.116V262.591H167.207C167.366 262.159 167.654 261.809 168.071 261.54C168.488 261.271 168.957 261.136 169.48 261.136C169.579 261.136 169.702 261.138 169.849 261.142C169.997 261.146 170.109 261.152 170.185 261.159V262.523C170.139 262.511 170.035 262.494 169.872 262.472C169.713 262.445 169.545 262.432 169.366 262.432C168.942 262.432 168.563 262.521 168.23 262.699C167.901 262.873 167.639 263.116 167.446 263.426C167.257 263.733 167.162 264.083 167.162 264.477V270H165.821ZM175.168 270.182C174.327 270.182 173.601 269.996 172.991 269.625C172.385 269.25 171.918 268.727 171.588 268.057C171.262 267.383 171.099 266.598 171.099 265.705C171.099 264.811 171.262 264.023 171.588 263.341C171.918 262.655 172.376 262.121 172.963 261.739C173.554 261.352 174.243 261.159 175.031 261.159C175.486 261.159 175.935 261.235 176.378 261.386C176.821 261.538 177.224 261.784 177.588 262.125C177.952 262.462 178.241 262.909 178.457 263.466C178.673 264.023 178.781 264.708 178.781 265.523V266.091H172.054V264.932H177.418C177.418 264.439 177.319 264 177.122 263.614C176.929 263.227 176.652 262.922 176.293 262.699C175.937 262.475 175.516 262.364 175.031 262.364C174.497 262.364 174.035 262.496 173.645 262.761C173.259 263.023 172.961 263.364 172.753 263.784C172.545 264.205 172.44 264.655 172.44 265.136V265.909C172.44 266.568 172.554 267.127 172.781 267.585C173.012 268.04 173.332 268.386 173.741 268.625C174.151 268.86 174.626 268.977 175.168 268.977C175.52 268.977 175.838 268.928 176.122 268.83C176.41 268.727 176.658 268.576 176.866 268.375C177.075 268.17 177.236 267.917 177.349 267.614L178.645 267.977C178.509 268.417 178.279 268.803 177.957 269.136C177.635 269.466 177.238 269.723 176.764 269.909C176.291 270.091 175.759 270.182 175.168 270.182ZM183.389 270.205C182.836 270.205 182.334 270.1 181.884 269.892C181.433 269.68 181.075 269.375 180.81 268.977C180.545 268.576 180.412 268.091 180.412 267.523C180.412 267.023 180.51 266.617 180.707 266.307C180.904 265.992 181.168 265.746 181.497 265.568C181.827 265.39 182.19 265.258 182.588 265.17C182.99 265.08 183.393 265.008 183.798 264.955C184.329 264.886 184.759 264.835 185.088 264.801C185.421 264.763 185.664 264.701 185.815 264.614C185.971 264.527 186.048 264.375 186.048 264.159V264.114C186.048 263.553 185.895 263.117 185.588 262.807C185.285 262.496 184.825 262.341 184.207 262.341C183.567 262.341 183.065 262.481 182.702 262.761C182.338 263.042 182.082 263.341 181.935 263.659L180.662 263.205C180.889 262.674 181.192 262.261 181.571 261.966C181.954 261.667 182.37 261.458 182.821 261.341C183.276 261.22 183.723 261.159 184.162 261.159C184.442 261.159 184.764 261.193 185.128 261.261C185.495 261.326 185.849 261.46 186.19 261.665C186.535 261.869 186.821 262.178 187.048 262.591C187.276 263.004 187.389 263.557 187.389 264.25V270H186.048V268.818H185.98C185.889 269.008 185.738 269.21 185.526 269.426C185.313 269.642 185.031 269.826 184.679 269.977C184.327 270.129 183.897 270.205 183.389 270.205ZM183.594 269C184.124 269 184.571 268.896 184.935 268.688C185.302 268.479 185.579 268.21 185.764 267.881C185.954 267.551 186.048 267.205 186.048 266.841V265.614C185.991 265.682 185.866 265.744 185.673 265.801C185.484 265.854 185.264 265.902 185.014 265.943C184.768 265.981 184.527 266.015 184.293 266.045C184.062 266.072 183.874 266.095 183.73 266.114C183.382 266.159 183.056 266.233 182.753 266.335C182.454 266.434 182.211 266.583 182.026 266.784C181.844 266.981 181.753 267.25 181.753 267.591C181.753 268.057 181.925 268.409 182.27 268.648C182.618 268.883 183.06 269 183.594 269ZM189.837 270V261.273H191.132V262.636H191.246C191.428 262.17 191.721 261.809 192.126 261.551C192.532 261.29 193.018 261.159 193.587 261.159C194.162 261.159 194.642 261.29 195.024 261.551C195.411 261.809 195.712 262.17 195.928 262.636H196.018C196.242 262.186 196.577 261.828 197.024 261.562C197.471 261.294 198.007 261.159 198.632 261.159C199.412 261.159 200.051 261.403 200.547 261.892C201.043 262.377 201.291 263.133 201.291 264.159V270H199.95V264.159C199.95 263.515 199.774 263.055 199.422 262.778C199.07 262.502 198.655 262.364 198.178 262.364C197.564 262.364 197.089 262.549 196.751 262.92C196.414 263.288 196.246 263.754 196.246 264.318V270H194.882V264.023C194.882 263.527 194.721 263.127 194.399 262.824C194.077 262.517 193.662 262.364 193.155 262.364C192.806 262.364 192.481 262.456 192.178 262.642C191.878 262.828 191.636 263.085 191.45 263.415C191.268 263.741 191.178 264.117 191.178 264.545V270H189.837ZM204.72 270.091C204.44 270.091 204.199 269.991 203.999 269.79C203.798 269.589 203.697 269.348 203.697 269.068C203.697 268.788 203.798 268.547 203.999 268.347C204.199 268.146 204.44 268.045 204.72 268.045C205 268.045 205.241 268.146 205.442 268.347C205.643 268.547 205.743 268.788 205.743 269.068C205.743 269.254 205.696 269.424 205.601 269.58C205.51 269.735 205.387 269.86 205.232 269.955C205.08 270.045 204.91 270.091 204.72 270.091ZM214.331 263.227L213.126 263.568C213.051 263.367 212.939 263.172 212.791 262.983C212.647 262.79 212.45 262.631 212.2 262.506C211.95 262.381 211.63 262.318 211.24 262.318C210.706 262.318 210.261 262.441 209.905 262.688C209.553 262.93 209.376 263.239 209.376 263.614C209.376 263.947 209.498 264.21 209.74 264.403C209.982 264.597 210.361 264.758 210.876 264.886L212.172 265.205C212.952 265.394 213.534 265.684 213.916 266.074C214.299 266.46 214.49 266.958 214.49 267.568C214.49 268.068 214.346 268.515 214.058 268.909C213.774 269.303 213.376 269.614 212.865 269.841C212.354 270.068 211.759 270.182 211.081 270.182C210.191 270.182 209.454 269.989 208.871 269.602C208.287 269.216 207.918 268.652 207.763 267.909L209.036 267.591C209.157 268.061 209.386 268.413 209.723 268.648C210.064 268.883 210.509 269 211.058 269C211.683 269 212.179 268.867 212.547 268.602C212.918 268.333 213.104 268.011 213.104 267.636C213.104 267.333 212.998 267.08 212.786 266.875C212.573 266.667 212.248 266.511 211.808 266.409L210.354 266.068C209.554 265.879 208.967 265.585 208.592 265.188C208.221 264.786 208.036 264.284 208.036 263.682C208.036 263.189 208.174 262.754 208.45 262.375C208.731 261.996 209.111 261.699 209.592 261.483C210.077 261.267 210.626 261.159 211.24 261.159C212.104 261.159 212.782 261.348 213.274 261.727C213.77 262.106 214.123 262.606 214.331 263.227ZM222.009 266.432V261.273H223.349V270H222.009V268.523H221.918C221.713 268.966 221.395 269.343 220.963 269.653C220.531 269.96 219.986 270.114 219.327 270.114C218.781 270.114 218.296 269.994 217.872 269.756C217.448 269.513 217.115 269.15 216.872 268.665C216.63 268.176 216.509 267.561 216.509 266.818V261.273H217.849V266.727C217.849 267.364 218.027 267.871 218.384 268.25C218.743 268.629 219.202 268.818 219.759 268.818C220.092 268.818 220.431 268.733 220.776 268.562C221.124 268.392 221.416 268.131 221.651 267.778C221.889 267.426 222.009 266.977 222.009 266.432Z" fill="black"/>
<path d="M80.2306 485V476.273H81.2875V480.159H85.9409V476.273H86.9977V485H85.9409V481.097H81.2875V485H80.2306ZM91.7214 485.136C91.0907 485.136 90.5467 484.997 90.0893 484.719C89.6348 484.438 89.2839 484.045 89.0368 483.543C88.7924 483.037 88.6703 482.449 88.6703 481.778C88.6703 481.108 88.7924 480.517 89.0368 480.006C89.2839 479.491 89.6277 479.091 90.068 478.804C90.5112 478.514 91.0282 478.369 91.6191 478.369C91.96 478.369 92.2967 478.426 92.6291 478.54C92.9615 478.653 93.264 478.838 93.5368 479.094C93.8095 479.347 94.0268 479.682 94.1887 480.099C94.3507 480.517 94.4316 481.031 94.4316 481.642V482.068H89.3862V481.199H93.4089C93.4089 480.83 93.335 480.5 93.1873 480.21C93.0424 479.92 92.835 479.692 92.5652 479.524C92.2981 479.357 91.9828 479.273 91.6191 479.273C91.2186 479.273 90.872 479.372 90.5794 479.571C90.2896 479.767 90.0666 480.023 89.9103 480.338C89.7541 480.653 89.676 480.991 89.676 481.352V481.932C89.676 482.426 89.7612 482.845 89.9316 483.189C90.1049 483.53 90.345 483.79 90.6518 483.969C90.9586 484.145 91.3152 484.233 91.7214 484.233C91.9856 484.233 92.2243 484.196 92.4373 484.122C92.6532 484.045 92.8393 483.932 92.9956 483.781C93.1518 483.628 93.2725 483.437 93.3578 483.21L94.3294 483.483C94.2271 483.812 94.0552 484.102 93.8137 484.352C93.5723 484.599 93.274 484.793 92.9189 484.932C92.5637 485.068 92.1646 485.136 91.7214 485.136ZM95.3521 479.392V478.455H100.67V479.392H98.5225V485H97.5169V479.392H95.3521ZM107.438 485.153C107.024 485.153 106.647 485.075 106.309 484.919C105.971 484.76 105.703 484.531 105.504 484.233C105.305 483.932 105.205 483.568 105.205 483.142C105.205 482.767 105.279 482.463 105.427 482.23C105.575 481.994 105.772 481.81 106.019 481.676C106.267 481.543 106.539 481.443 106.838 481.378C107.139 481.31 107.441 481.256 107.745 481.216C108.143 481.165 108.465 481.126 108.713 481.101C108.963 481.072 109.144 481.026 109.258 480.96C109.374 480.895 109.433 480.781 109.433 480.619V480.585C109.433 480.165 109.318 479.838 109.088 479.605C108.86 479.372 108.515 479.256 108.052 479.256C107.572 479.256 107.195 479.361 106.923 479.571C106.65 479.781 106.458 480.006 106.347 480.244L105.393 479.903C105.563 479.506 105.791 479.196 106.075 478.974C106.362 478.75 106.674 478.594 107.012 478.506C107.353 478.415 107.688 478.369 108.018 478.369C108.228 478.369 108.47 478.395 108.742 478.446C109.018 478.494 109.284 478.595 109.539 478.749C109.798 478.902 110.012 479.134 110.183 479.443C110.353 479.753 110.438 480.168 110.438 480.688V485H109.433V484.114H109.382C109.313 484.256 109.2 484.408 109.041 484.57C108.882 484.732 108.67 484.869 108.406 484.983C108.142 485.097 107.819 485.153 107.438 485.153ZM107.592 484.25C107.99 484.25 108.325 484.172 108.597 484.016C108.873 483.859 109.08 483.658 109.22 483.411C109.362 483.163 109.433 482.903 109.433 482.631V481.71C109.39 481.761 109.296 481.808 109.151 481.851C109.009 481.891 108.845 481.926 108.657 481.957C108.472 481.986 108.292 482.011 108.116 482.034C107.943 482.054 107.802 482.071 107.694 482.085C107.433 482.119 107.188 482.175 106.961 482.251C106.737 482.325 106.555 482.437 106.416 482.588C106.279 482.736 106.211 482.937 106.211 483.193C106.211 483.543 106.34 483.807 106.599 483.986C106.86 484.162 107.191 484.25 107.592 484.25ZM112.274 485V478.455H113.28V481.301H113.944L116.297 478.455H117.592L114.95 481.608L117.626 485H116.331L114.183 482.239H113.28V485H112.274ZM118.719 485V478.455H119.725V481.301H120.39L122.742 478.455H124.037L121.395 481.608L124.072 485H122.776L120.628 482.239H119.725V485H118.719ZM127.091 485.153C126.676 485.153 126.3 485.075 125.961 484.919C125.623 484.76 125.355 484.531 125.156 484.233C124.957 483.932 124.858 483.568 124.858 483.142C124.858 482.767 124.932 482.463 125.079 482.23C125.227 481.994 125.425 481.81 125.672 481.676C125.919 481.543 126.192 481.443 126.49 481.378C126.791 481.31 127.094 481.256 127.398 481.216C127.795 481.165 128.118 481.126 128.365 481.101C128.615 481.072 128.797 481.026 128.91 480.96C129.027 480.895 129.085 480.781 129.085 480.619V480.585C129.085 480.165 128.97 479.838 128.74 479.605C128.513 479.372 128.167 479.256 127.704 479.256C127.224 479.256 126.848 479.361 126.575 479.571C126.302 479.781 126.111 480.006 126 480.244L125.045 479.903C125.216 479.506 125.443 479.196 125.727 478.974C126.014 478.75 126.327 478.594 126.665 478.506C127.006 478.415 127.341 478.369 127.67 478.369C127.881 478.369 128.122 478.395 128.395 478.446C128.67 478.494 128.936 478.595 129.192 478.749C129.45 478.902 129.665 479.134 129.835 479.443C130.006 479.753 130.091 480.168 130.091 480.688V485H129.085V484.114H129.034C128.966 484.256 128.852 484.408 128.693 484.57C128.534 484.732 128.322 484.869 128.058 484.983C127.794 485.097 127.471 485.153 127.091 485.153ZM127.244 484.25C127.642 484.25 127.977 484.172 128.25 484.016C128.525 483.859 128.733 483.658 128.872 483.411C129.014 483.163 129.085 482.903 129.085 482.631V481.71C129.042 481.761 128.949 481.808 128.804 481.851C128.662 481.891 128.497 481.926 128.309 481.957C128.125 481.986 127.944 482.011 127.768 482.034C127.595 482.054 127.454 482.071 127.346 482.085C127.085 482.119 126.841 482.175 126.613 482.251C126.389 482.325 126.207 482.437 126.068 482.588C125.932 482.736 125.863 482.937 125.863 483.193C125.863 483.543 125.993 483.807 126.251 483.986C126.513 484.162 126.844 484.25 127.244 484.25ZM132.34 487.455C132.169 487.455 132.017 487.44 131.884 487.412C131.75 487.386 131.658 487.361 131.607 487.335L131.862 486.449C132.107 486.511 132.323 486.534 132.51 486.517C132.698 486.5 132.864 486.416 133.009 486.266C133.156 486.118 133.291 485.878 133.414 485.545L133.601 485.034L131.181 478.455H132.271L134.078 483.67H134.146L135.953 478.455H137.044L134.266 485.955C134.141 486.293 133.986 486.572 133.801 486.794C133.617 487.018 133.402 487.185 133.158 487.293C132.916 487.401 132.644 487.455 132.34 487.455ZM142.752 481.267V482.205H139.139V481.267H142.752ZM139.377 478.455V485H138.372V478.455H139.377ZM143.519 478.455V485H142.514V478.455H143.519ZM144.465 479.392V478.455H149.784V479.392H147.636V485H146.63V479.392H144.465ZM152.837 485.153C152.422 485.153 152.046 485.075 151.708 484.919C151.369 484.76 151.101 484.531 150.902 484.233C150.703 483.932 150.604 483.568 150.604 483.142C150.604 482.767 150.678 482.463 150.825 482.23C150.973 481.994 151.171 481.81 151.418 481.676C151.665 481.543 151.938 481.443 152.236 481.378C152.537 481.31 152.84 481.256 153.144 481.216C153.541 481.165 153.864 481.126 154.111 481.101C154.361 481.072 154.543 481.026 154.656 480.96C154.773 480.895 154.831 480.781 154.831 480.619V480.585C154.831 480.165 154.716 479.838 154.486 479.605C154.259 479.372 153.914 479.256 153.45 479.256C152.97 479.256 152.594 479.361 152.321 479.571C152.048 479.781 151.857 480.006 151.746 480.244L150.791 479.903C150.962 479.506 151.189 479.196 151.473 478.974C151.76 478.75 152.073 478.594 152.411 478.506C152.752 478.415 153.087 478.369 153.416 478.369C153.627 478.369 153.868 478.395 154.141 478.446C154.416 478.494 154.682 478.595 154.938 478.749C155.196 478.902 155.411 479.134 155.581 479.443C155.752 479.753 155.837 480.168 155.837 480.688V485H154.831V484.114H154.78C154.712 484.256 154.598 484.408 154.439 484.57C154.28 484.732 154.068 484.869 153.804 484.983C153.54 485.097 153.218 485.153 152.837 485.153ZM152.99 484.25C153.388 484.25 153.723 484.172 153.996 484.016C154.271 483.859 154.479 483.658 154.618 483.411C154.76 483.163 154.831 482.903 154.831 482.631V481.71C154.789 481.761 154.695 481.808 154.55 481.851C154.408 481.891 154.243 481.926 154.056 481.957C153.871 481.986 153.691 482.011 153.514 482.034C153.341 482.054 153.2 482.071 153.093 482.085C152.831 482.119 152.587 482.175 152.36 482.251C152.135 482.325 151.953 482.437 151.814 482.588C151.678 482.736 151.61 482.937 151.61 483.193C151.61 483.543 151.739 483.807 151.997 483.986C152.259 484.162 152.59 484.25 152.99 484.25ZM158.985 482.545V482.494C158.991 481.952 159.047 481.52 159.155 481.199C159.263 480.878 159.417 480.618 159.616 480.419C159.814 480.22 160.053 480.037 160.331 479.869C160.499 479.767 160.65 479.646 160.783 479.507C160.917 479.365 161.022 479.202 161.099 479.017C161.178 478.832 161.218 478.628 161.218 478.403C161.218 478.125 161.153 477.884 161.022 477.679C160.891 477.474 160.716 477.317 160.498 477.206C160.279 477.095 160.036 477.04 159.769 477.04C159.536 477.04 159.312 477.088 159.096 477.185C158.88 477.281 158.699 477.433 158.555 477.641C158.41 477.848 158.326 478.119 158.303 478.455H157.229C157.252 477.972 157.377 477.558 157.604 477.214C157.834 476.871 158.137 476.608 158.512 476.426C158.89 476.244 159.309 476.153 159.769 476.153C160.269 476.153 160.704 476.253 161.073 476.452C161.445 476.651 161.732 476.923 161.934 477.27C162.138 477.616 162.241 478.011 162.241 478.455C162.241 478.767 162.192 479.05 162.096 479.303C162.002 479.555 161.866 479.781 161.687 479.98C161.51 480.179 161.297 480.355 161.047 480.509C160.797 480.665 160.597 480.83 160.447 481.003C160.296 481.173 160.187 481.376 160.118 481.612C160.05 481.848 160.013 482.142 160.008 482.494V482.545H158.985ZM159.53 485.068C159.32 485.068 159.14 484.993 158.989 484.842C158.839 484.692 158.763 484.511 158.763 484.301C158.763 484.091 158.839 483.911 158.989 483.76C159.14 483.609 159.32 483.534 159.53 483.534C159.741 483.534 159.921 483.609 160.072 483.76C160.222 483.911 160.297 484.091 160.297 484.301C160.297 484.44 160.262 484.568 160.191 484.685C160.123 484.801 160.03 484.895 159.914 484.966C159.8 485.034 159.672 485.068 159.53 485.068ZM99.6214 498.517L102.775 493.455H103.934V500H102.928V494.938L99.7919 500H98.6158V493.455H99.6214V498.517ZM105.196 500V499.062H105.435C105.631 499.062 105.794 499.024 105.925 498.947C106.056 498.868 106.161 498.73 106.24 498.534C106.323 498.335 106.385 498.06 106.428 497.707C106.473 497.352 106.506 496.901 106.526 496.352L106.645 493.455H111.009V500H110.003V494.392H107.6L107.498 496.727C107.475 497.264 107.426 497.737 107.353 498.146C107.282 498.553 107.172 498.893 107.025 499.169C106.88 499.445 106.686 499.652 106.445 499.791C106.203 499.93 105.901 500 105.537 500H105.196ZM113.86 498.517L117.013 493.455H118.172V500H117.167V494.938L114.03 500H112.854V493.455H113.86V498.517ZM123.389 500V493.455H126.065C126.77 493.455 127.33 493.614 127.744 493.932C128.159 494.25 128.366 494.67 128.366 495.193C128.366 495.591 128.249 495.899 128.013 496.118C127.777 496.334 127.474 496.48 127.105 496.557C127.347 496.591 127.581 496.676 127.808 496.812C128.038 496.949 128.229 497.136 128.379 497.375C128.53 497.611 128.605 497.901 128.605 498.244C128.605 498.58 128.52 498.879 128.349 499.143C128.179 499.408 127.935 499.616 127.616 499.77C127.298 499.923 126.918 500 126.474 500H123.389ZM124.344 499.08H126.474C126.821 499.08 127.092 498.997 127.288 498.832C127.484 498.668 127.582 498.443 127.582 498.159C127.582 497.821 127.484 497.555 127.288 497.362C127.092 497.166 126.821 497.068 126.474 497.068H124.344V499.08ZM124.344 496.199H126.065C126.335 496.199 126.567 496.162 126.76 496.088C126.953 496.011 127.101 495.903 127.203 495.764C127.308 495.622 127.361 495.455 127.361 495.261C127.361 494.986 127.246 494.77 127.016 494.614C126.786 494.455 126.469 494.375 126.065 494.375H124.344V496.199ZM132.787 500.136C132.196 500.136 131.677 499.996 131.231 499.714C130.788 499.433 130.441 499.04 130.191 498.534C129.944 498.028 129.821 497.437 129.821 496.761C129.821 496.08 129.944 495.484 130.191 494.976C130.441 494.467 130.788 494.072 131.231 493.791C131.677 493.51 132.196 493.369 132.787 493.369C133.377 493.369 133.895 493.51 134.338 493.791C134.784 494.072 135.13 494.467 135.377 494.976C135.627 495.484 135.752 496.08 135.752 496.761C135.752 497.437 135.627 498.028 135.377 498.534C135.13 499.04 134.784 499.433 134.338 499.714C133.895 499.996 133.377 500.136 132.787 500.136ZM132.787 499.233C133.235 499.233 133.605 499.118 133.895 498.888C134.184 498.658 134.399 498.355 134.538 497.98C134.677 497.605 134.747 497.199 134.747 496.761C134.747 496.324 134.677 495.916 134.538 495.538C134.399 495.161 134.184 494.855 133.895 494.622C133.605 494.389 133.235 494.273 132.787 494.273C132.338 494.273 131.968 494.389 131.679 494.622C131.389 494.855 131.174 495.161 131.035 495.538C130.896 495.916 130.826 496.324 130.826 496.761C130.826 497.199 130.896 497.605 131.035 497.98C131.174 498.355 131.389 498.658 131.679 498.888C131.968 499.118 132.338 499.233 132.787 499.233ZM138.293 498.517L141.447 493.455H142.606V500H141.6V494.938L138.464 500H137.288V493.455H138.293V498.517ZM140.782 491.273H141.719C141.719 491.733 141.56 492.109 141.242 492.402C140.924 492.695 140.492 492.841 139.947 492.841C139.41 492.841 138.982 492.695 138.664 492.402C138.349 492.109 138.191 491.733 138.191 491.273H139.129C139.129 491.494 139.19 491.689 139.312 491.857C139.437 492.024 139.648 492.108 139.947 492.108C140.245 492.108 140.458 492.024 140.586 491.857C140.717 491.689 140.782 491.494 140.782 491.273ZM143.749 501.875V499.062H144.294C144.428 498.923 144.543 498.773 144.64 498.611C144.736 498.449 144.82 498.257 144.891 498.036C144.965 497.811 145.027 497.538 145.078 497.217C145.13 496.893 145.175 496.503 145.215 496.045L145.436 493.455H149.596V499.062H150.601V501.875H149.596V500H144.755V501.875H143.749ZM145.436 499.062H148.59V494.392H146.374L146.203 496.045C146.132 496.73 146.044 497.328 145.939 497.839C145.834 498.351 145.667 498.759 145.436 499.062ZM152.942 498.517L156.095 493.455H157.254V500H156.249V494.938L153.112 500H151.936V493.455H152.942V498.517ZM158.206 494.392V493.455H163.524V494.392H161.376V500H160.37V494.392H158.206ZM167.395 500.136C166.765 500.136 166.221 499.997 165.763 499.719C165.309 499.438 164.958 499.045 164.711 498.543C164.466 498.037 164.344 497.449 164.344 496.778C164.344 496.108 164.466 495.517 164.711 495.006C164.958 494.491 165.301 494.091 165.742 493.804C166.185 493.514 166.702 493.369 167.293 493.369C167.634 493.369 167.971 493.426 168.303 493.54C168.635 493.653 168.938 493.838 169.211 494.094C169.483 494.347 169.701 494.682 169.863 495.099C170.025 495.517 170.105 496.031 170.105 496.642V497.068H165.06V496.199H169.083C169.083 495.83 169.009 495.5 168.861 495.21C168.716 494.92 168.509 494.692 168.239 494.524C167.972 494.357 167.657 494.273 167.293 494.273C166.892 494.273 166.546 494.372 166.253 494.571C165.963 494.767 165.74 495.023 165.584 495.338C165.428 495.653 165.35 495.991 165.35 496.352V496.932C165.35 497.426 165.435 497.845 165.605 498.189C165.779 498.53 166.019 498.79 166.326 498.969C166.632 499.145 166.989 499.233 167.395 499.233C167.659 499.233 167.898 499.196 168.111 499.122C168.327 499.045 168.513 498.932 168.669 498.781C168.826 498.628 168.946 498.437 169.032 498.21L170.003 498.483C169.901 498.812 169.729 499.102 169.488 499.352C169.246 499.599 168.948 499.793 168.593 499.932C168.238 500.068 167.838 500.136 167.395 500.136ZM180.056 493.455V500H179.05V493.455H180.056ZM179.664 496.574V497.511C179.436 497.597 179.211 497.672 178.986 497.737C178.762 497.8 178.526 497.849 178.279 497.886C178.032 497.92 177.76 497.938 177.465 497.938C176.723 497.938 176.128 497.737 175.679 497.337C175.233 496.936 175.01 496.335 175.01 495.534V493.438H176.016V495.534C176.016 495.869 176.08 496.145 176.208 496.361C176.336 496.577 176.509 496.737 176.728 496.842C176.946 496.947 177.192 497 177.465 497C177.891 497 178.276 496.962 178.62 496.885C178.966 496.805 179.314 496.702 179.664 496.574ZM184.645 500.136C184.015 500.136 183.471 499.997 183.013 499.719C182.559 499.438 182.208 499.045 181.961 498.543C181.716 498.037 181.594 497.449 181.594 496.778C181.594 496.108 181.716 495.517 181.961 495.006C182.208 494.491 182.551 494.091 182.992 493.804C183.435 493.514 183.952 493.369 184.543 493.369C184.884 493.369 185.221 493.426 185.553 493.54C185.885 493.653 186.188 493.838 186.461 494.094C186.733 494.347 186.951 494.682 187.113 495.099C187.275 495.517 187.355 496.031 187.355 496.642V497.068H182.31V496.199H186.333C186.333 495.83 186.259 495.5 186.111 495.21C185.966 494.92 185.759 494.692 185.489 494.524C185.222 494.357 184.907 494.273 184.543 494.273C184.142 494.273 183.796 494.372 183.503 494.571C183.213 494.767 182.99 495.023 182.834 495.338C182.678 495.653 182.6 495.991 182.6 496.352V496.932C182.6 497.426 182.685 497.845 182.855 498.189C183.029 498.53 183.269 498.79 183.576 498.969C183.882 499.145 184.239 499.233 184.645 499.233C184.909 499.233 185.148 499.196 185.361 499.122C185.577 499.045 185.763 498.932 185.919 498.781C186.076 498.628 186.196 498.437 186.282 498.21L187.253 498.483C187.151 498.812 186.979 499.102 186.738 499.352C186.496 499.599 186.198 499.793 185.843 499.932C185.488 500.068 185.088 500.136 184.645 500.136ZM188.885 502.455V493.455H189.857V494.494H189.976C190.05 494.381 190.152 494.236 190.283 494.06C190.417 493.881 190.607 493.722 190.854 493.582C191.104 493.44 191.442 493.369 191.868 493.369C192.419 493.369 192.905 493.507 193.326 493.783C193.746 494.058 194.074 494.449 194.31 494.955C194.546 495.46 194.664 496.057 194.664 496.744C194.664 497.438 194.546 498.038 194.31 498.547C194.074 499.053 193.748 499.445 193.33 499.723C192.912 499.999 192.431 500.136 191.885 500.136C191.465 500.136 191.128 500.067 190.875 499.928C190.623 499.786 190.428 499.625 190.292 499.446C190.155 499.264 190.05 499.114 189.976 498.994H189.891V502.455H188.885ZM189.874 496.727C189.874 497.222 189.946 497.658 190.091 498.036C190.236 498.411 190.448 498.705 190.726 498.918C191.005 499.128 191.346 499.233 191.749 499.233C192.169 499.233 192.52 499.122 192.801 498.901C193.086 498.676 193.299 498.375 193.441 497.997C193.586 497.616 193.658 497.193 193.658 496.727C193.658 496.267 193.587 495.852 193.445 495.483C193.306 495.111 193.094 494.817 192.81 494.601C192.529 494.382 192.175 494.273 191.749 494.273C191.34 494.273 190.996 494.376 190.718 494.584C190.439 494.788 190.229 495.075 190.087 495.445C189.945 495.811 189.874 496.239 189.874 496.727ZM198.942 500.136C198.311 500.136 197.767 499.997 197.31 499.719C196.855 499.438 196.505 499.045 196.257 498.543C196.013 498.037 195.891 497.449 195.891 496.778C195.891 496.108 196.013 495.517 196.257 495.006C196.505 494.491 196.848 494.091 197.289 493.804C197.732 493.514 198.249 493.369 198.84 493.369C199.181 493.369 199.517 493.426 199.85 493.54C200.182 493.653 200.485 493.838 200.757 494.094C201.03 494.347 201.248 494.682 201.409 495.099C201.571 495.517 201.652 496.031 201.652 496.642V497.068H196.607V496.199H200.63C200.63 495.83 200.556 495.5 200.408 495.21C200.263 494.92 200.056 494.692 199.786 494.524C199.519 494.357 199.203 494.273 198.84 494.273C198.439 494.273 198.093 494.372 197.8 494.571C197.51 494.767 197.287 495.023 197.131 495.338C196.975 495.653 196.897 495.991 196.897 496.352V496.932C196.897 497.426 196.982 497.845 197.152 498.189C197.326 498.53 197.566 498.79 197.873 498.969C198.179 499.145 198.536 499.233 198.942 499.233C199.206 499.233 199.445 499.196 199.658 499.122C199.874 499.045 200.06 498.932 200.216 498.781C200.373 498.628 200.493 498.437 200.578 498.21L201.55 498.483C201.448 498.812 201.276 499.102 201.034 499.352C200.793 499.599 200.495 499.793 200.14 499.932C199.784 500.068 199.385 500.136 198.942 500.136ZM202.773 498.33H203.847C203.87 498.625 204.003 498.849 204.248 499.003C204.495 499.156 204.816 499.233 205.211 499.233C205.614 499.233 205.959 499.151 206.246 498.986C206.533 498.818 206.676 498.548 206.676 498.176C206.676 497.957 206.623 497.767 206.515 497.605C206.407 497.44 206.255 497.312 206.059 497.222C205.863 497.131 205.631 497.085 205.364 497.085H204.239V496.182H205.364C205.765 496.182 206.06 496.091 206.25 495.909C206.444 495.727 206.54 495.5 206.54 495.227C206.54 494.935 206.436 494.7 206.229 494.524C206.022 494.345 205.728 494.256 205.347 494.256C204.963 494.256 204.644 494.342 204.388 494.516C204.132 494.686 203.998 494.906 203.983 495.176H202.926C202.938 494.824 203.046 494.513 203.25 494.243C203.455 493.97 203.733 493.757 204.086 493.604C204.438 493.447 204.841 493.369 205.296 493.369C205.756 493.369 206.155 493.45 206.493 493.612C206.834 493.771 207.097 493.989 207.282 494.264C207.469 494.537 207.563 494.847 207.563 495.193C207.563 495.562 207.459 495.861 207.252 496.088C207.044 496.315 206.784 496.477 206.472 496.574V496.642C206.719 496.659 206.934 496.739 207.115 496.881C207.3 497.02 207.444 497.203 207.546 497.43C207.648 497.655 207.699 497.903 207.699 498.176C207.699 498.574 207.593 498.92 207.38 499.216C207.167 499.509 206.874 499.736 206.502 499.898C206.13 500.057 205.705 500.136 205.228 500.136C204.765 500.136 204.35 500.061 203.983 499.911C203.617 499.757 203.326 499.545 203.11 499.276C202.897 499.003 202.784 498.688 202.773 498.33ZM215.146 500.136C214.532 500.136 214.004 499.991 213.561 499.702C213.118 499.412 212.777 499.013 212.538 498.504C212.299 497.996 212.18 497.415 212.18 496.761C212.18 496.097 212.302 495.51 212.547 495.001C212.794 494.49 213.137 494.091 213.578 493.804C214.021 493.514 214.538 493.369 215.129 493.369C215.589 493.369 216.004 493.455 216.373 493.625C216.743 493.795 217.045 494.034 217.281 494.341C217.517 494.648 217.663 495.006 217.72 495.415H216.714C216.637 495.116 216.467 494.852 216.203 494.622C215.941 494.389 215.589 494.273 215.146 494.273C214.754 494.273 214.41 494.375 214.115 494.58C213.822 494.781 213.593 495.067 213.429 495.436C213.267 495.803 213.186 496.233 213.186 496.727C213.186 497.233 213.265 497.673 213.424 498.048C213.586 498.423 213.814 498.714 214.106 498.922C214.402 499.129 214.748 499.233 215.146 499.233C215.407 499.233 215.645 499.188 215.858 499.097C216.071 499.006 216.251 498.875 216.399 498.705C216.547 498.534 216.652 498.33 216.714 498.091H217.72C217.663 498.477 217.522 498.825 217.298 499.135C217.076 499.442 216.782 499.686 216.416 499.868C216.052 500.047 215.629 500.136 215.146 500.136ZM221.849 500.136C221.258 500.136 220.74 499.996 220.294 499.714C219.85 499.433 219.504 499.04 219.254 498.534C219.007 498.028 218.883 497.437 218.883 496.761C218.883 496.08 219.007 495.484 219.254 494.976C219.504 494.467 219.85 494.072 220.294 493.791C220.74 493.51 221.258 493.369 221.849 493.369C222.44 493.369 222.957 493.51 223.4 493.791C223.846 494.072 224.193 494.467 224.44 494.976C224.69 495.484 224.815 496.08 224.815 496.761C224.815 497.437 224.69 498.028 224.44 498.534C224.193 499.04 223.846 499.433 223.4 499.714C222.957 499.996 222.44 500.136 221.849 500.136ZM221.849 499.233C222.298 499.233 222.667 499.118 222.957 498.888C223.247 498.658 223.461 498.355 223.6 497.98C223.74 497.605 223.809 497.199 223.809 496.761C223.809 496.324 223.74 495.916 223.6 495.538C223.461 495.161 223.247 494.855 222.957 494.622C222.667 494.389 222.298 494.273 221.849 494.273C221.4 494.273 221.031 494.389 220.741 494.622C220.451 494.855 220.237 495.161 220.098 495.538C219.958 495.916 219.889 496.324 219.889 496.761C219.889 497.199 219.958 497.605 220.098 497.98C220.237 498.355 220.451 498.658 220.741 498.888C221.031 499.118 221.4 499.233 221.849 499.233ZM231.498 493.455V499.062H232.418V502.114H231.413V500H226.35V493.455H227.356V499.062H230.492V493.455H231.498ZM236.556 500.136C235.942 500.136 235.414 499.991 234.971 499.702C234.528 499.412 234.187 499.013 233.948 498.504C233.71 497.996 233.59 497.415 233.59 496.761C233.59 496.097 233.712 495.51 233.957 495.001C234.204 494.49 234.548 494.091 234.988 493.804C235.431 493.514 235.948 493.369 236.539 493.369C236.999 493.369 237.414 493.455 237.783 493.625C238.153 493.795 238.455 494.034 238.691 494.341C238.927 494.648 239.073 495.006 239.13 495.415H238.124C238.048 495.116 237.877 494.852 237.613 494.622C237.352 494.389 236.999 494.273 236.556 494.273C236.164 494.273 235.82 494.375 235.525 494.58C235.232 494.781 235.004 495.067 234.839 495.436C234.677 495.803 234.596 496.233 234.596 496.727C234.596 497.233 234.675 497.673 234.835 498.048C234.996 498.423 235.224 498.714 235.516 498.922C235.812 499.129 236.158 499.233 236.556 499.233C236.817 499.233 237.055 499.188 237.268 499.097C237.481 499.006 237.661 498.875 237.809 498.705C237.957 498.534 238.062 498.33 238.124 498.091H239.13C239.073 498.477 238.933 498.825 238.708 499.135C238.487 499.442 238.192 499.686 237.826 499.868C237.462 500.047 237.039 500.136 236.556 500.136ZM243.344 500.136C242.714 500.136 242.17 499.997 241.712 499.719C241.258 499.438 240.907 499.045 240.66 498.543C240.415 498.037 240.293 497.449 240.293 496.778C240.293 496.108 240.415 495.517 240.66 495.006C240.907 494.491 241.251 494.091 241.691 493.804C242.134 493.514 242.651 493.369 243.242 493.369C243.583 493.369 243.92 493.426 244.252 493.54C244.585 493.653 244.887 493.838 245.16 494.094C245.433 494.347 245.65 494.682 245.812 495.099C245.974 495.517 246.055 496.031 246.055 496.642V497.068H241.009V496.199H245.032C245.032 495.83 244.958 495.5 244.81 495.21C244.665 494.92 244.458 494.692 244.188 494.524C243.921 494.357 243.606 494.273 243.242 494.273C242.842 494.273 242.495 494.372 242.202 494.571C241.913 494.767 241.69 495.023 241.533 495.338C241.377 495.653 241.299 495.991 241.299 496.352V496.932C241.299 497.426 241.384 497.845 241.555 498.189C241.728 498.53 241.968 498.79 242.275 498.969C242.582 499.145 242.938 499.233 243.344 499.233C243.609 499.233 243.847 499.196 244.06 499.122C244.276 499.045 244.462 498.932 244.619 498.781C244.775 498.628 244.896 498.437 244.981 498.21L245.952 498.483C245.85 498.812 245.678 499.102 245.437 499.352C245.195 499.599 244.897 499.793 244.542 499.932C244.187 500.068 243.788 500.136 243.344 500.136ZM246.975 494.392V493.455H252.293V494.392H250.146V500H249.14V494.392H246.975ZM254.766 498.517L257.919 493.455H259.078V500H258.073V494.938L254.936 500H253.76V493.455H254.766V498.517ZM261.653 500.068C261.443 500.068 261.263 499.993 261.112 499.842C260.962 499.692 260.886 499.511 260.886 499.301C260.886 499.091 260.962 498.911 261.112 498.76C261.263 498.609 261.443 498.534 261.653 498.534C261.864 498.534 262.044 498.609 262.195 498.76C262.345 498.911 262.42 499.091 262.42 499.301C262.42 499.44 262.385 499.568 262.314 499.685C262.246 499.801 262.153 499.895 262.037 499.966C261.923 500.034 261.795 500.068 261.653 500.068ZM261.653 495.21C261.443 495.21 261.263 495.135 261.112 494.984C260.962 494.834 260.886 494.653 260.886 494.443C260.886 494.233 260.962 494.053 261.112 493.902C261.263 493.751 261.443 493.676 261.653 493.676C261.864 493.676 262.044 493.751 262.195 493.902C262.345 494.053 262.42 494.233 262.42 494.443C262.42 494.582 262.385 494.71 262.314 494.827C262.246 494.943 262.153 495.037 262.037 495.108C261.923 495.176 261.795 495.21 261.653 495.21Z" fill="black" fill-opacity="0.87"/>
<path d="M170.061 485.119C169.499 485.119 168.997 485.023 168.557 484.83C168.119 484.636 167.771 484.368 167.513 484.024C167.257 483.678 167.118 483.276 167.095 482.818H168.169C168.192 483.099 168.289 483.342 168.459 483.547C168.629 483.749 168.852 483.905 169.128 484.016C169.404 484.126 169.709 484.182 170.044 484.182C170.419 484.182 170.752 484.116 171.041 483.986C171.331 483.855 171.558 483.673 171.723 483.44C171.888 483.207 171.97 482.938 171.97 482.631C171.97 482.31 171.891 482.027 171.732 481.783C171.573 481.536 171.34 481.342 171.033 481.203C170.726 481.064 170.351 480.994 169.908 480.994H169.209V480.057H169.908C170.254 480.057 170.558 479.994 170.82 479.869C171.084 479.744 171.29 479.568 171.438 479.341C171.588 479.114 171.664 478.847 171.664 478.54C171.664 478.244 171.598 477.987 171.468 477.768C171.337 477.55 171.152 477.379 170.914 477.257C170.678 477.135 170.399 477.074 170.078 477.074C169.777 477.074 169.493 477.129 169.226 477.24C168.962 477.348 168.746 477.506 168.578 477.713C168.411 477.918 168.32 478.165 168.306 478.455H167.283C167.3 477.997 167.438 477.597 167.696 477.253C167.955 476.906 168.293 476.636 168.71 476.443C169.131 476.25 169.593 476.153 170.095 476.153C170.635 476.153 171.098 476.263 171.485 476.482C171.871 476.697 172.168 476.983 172.375 477.338C172.583 477.693 172.686 478.077 172.686 478.489C172.686 478.98 172.557 479.399 172.298 479.746C172.043 480.092 171.695 480.332 171.254 480.466V480.534C171.806 480.625 172.236 480.859 172.546 481.237C172.855 481.612 173.01 482.077 173.01 482.631C173.01 483.105 172.881 483.531 172.622 483.909C172.367 484.284 172.017 484.58 171.574 484.795C171.131 485.011 170.627 485.119 170.061 485.119ZM176.696 485.153C176.281 485.153 175.905 485.075 175.567 484.919C175.229 484.76 174.96 484.531 174.762 484.233C174.563 483.932 174.463 483.568 174.463 483.142C174.463 482.767 174.537 482.463 174.685 482.23C174.833 481.994 175.03 481.81 175.277 481.676C175.524 481.543 175.797 481.443 176.095 481.378C176.396 481.31 176.699 481.256 177.003 481.216C177.401 481.165 177.723 481.126 177.97 481.101C178.22 481.072 178.402 481.026 178.516 480.96C178.632 480.895 178.691 480.781 178.691 480.619V480.585C178.691 480.165 178.575 479.838 178.345 479.605C178.118 479.372 177.773 479.256 177.31 479.256C176.83 479.256 176.453 479.361 176.181 479.571C175.908 479.781 175.716 480.006 175.605 480.244L174.651 479.903C174.821 479.506 175.048 479.196 175.333 478.974C175.619 478.75 175.932 478.594 176.27 478.506C176.611 478.415 176.946 478.369 177.276 478.369C177.486 478.369 177.727 478.395 178 478.446C178.276 478.494 178.541 478.595 178.797 478.749C179.056 478.902 179.27 479.134 179.441 479.443C179.611 479.753 179.696 480.168 179.696 480.688V485H178.691V484.114H178.639C178.571 484.256 178.458 484.408 178.298 484.57C178.139 484.732 177.928 484.869 177.664 484.983C177.399 485.097 177.077 485.153 176.696 485.153ZM176.85 484.25C177.247 484.25 177.583 484.172 177.855 484.016C178.131 483.859 178.338 483.658 178.477 483.411C178.619 483.163 178.691 482.903 178.691 482.631V481.71C178.648 481.761 178.554 481.808 178.409 481.851C178.267 481.891 178.102 481.926 177.915 481.957C177.73 481.986 177.55 482.011 177.374 482.034C177.2 482.054 177.06 482.071 176.952 482.085C176.691 482.119 176.446 482.175 176.219 482.251C175.994 482.325 175.813 482.437 175.673 482.588C175.537 482.736 175.469 482.937 175.469 483.193C175.469 483.543 175.598 483.807 175.857 483.986C176.118 484.162 176.449 484.25 176.85 484.25ZM181.532 487.455V478.455H182.503V479.494H182.623C182.697 479.381 182.799 479.236 182.93 479.06C183.063 478.881 183.253 478.722 183.501 478.582C183.751 478.44 184.089 478.369 184.515 478.369C185.066 478.369 185.552 478.507 185.972 478.783C186.393 479.058 186.721 479.449 186.956 479.955C187.192 480.46 187.31 481.057 187.31 481.744C187.31 482.438 187.192 483.038 186.956 483.547C186.721 484.053 186.394 484.445 185.976 484.723C185.559 484.999 185.077 485.136 184.532 485.136C184.111 485.136 183.775 485.067 183.522 484.928C183.269 484.786 183.074 484.625 182.938 484.446C182.802 484.264 182.697 484.114 182.623 483.994H182.537V487.455H181.532ZM182.52 481.727C182.52 482.222 182.593 482.658 182.738 483.036C182.883 483.411 183.094 483.705 183.373 483.918C183.651 484.128 183.992 484.233 184.395 484.233C184.816 484.233 185.167 484.122 185.448 483.901C185.732 483.676 185.945 483.375 186.087 482.997C186.232 482.616 186.305 482.193 186.305 481.727C186.305 481.267 186.233 480.852 186.091 480.483C185.952 480.111 185.741 479.817 185.456 479.601C185.175 479.382 184.822 479.273 184.395 479.273C183.986 479.273 183.643 479.376 183.364 479.584C183.086 479.788 182.876 480.075 182.733 480.445C182.591 480.811 182.52 481.239 182.52 481.727ZM191.589 485.136C190.958 485.136 190.414 484.997 189.956 484.719C189.502 484.438 189.151 484.045 188.904 483.543C188.66 483.037 188.537 482.449 188.537 481.778C188.537 481.108 188.66 480.517 188.904 480.006C189.151 479.491 189.495 479.091 189.935 478.804C190.378 478.514 190.895 478.369 191.486 478.369C191.827 478.369 192.164 478.426 192.496 478.54C192.829 478.653 193.131 478.838 193.404 479.094C193.677 479.347 193.894 479.682 194.056 480.099C194.218 480.517 194.299 481.031 194.299 481.642V482.068H189.253V481.199H193.276C193.276 480.83 193.202 480.5 193.055 480.21C192.91 479.92 192.702 479.692 192.432 479.524C192.165 479.357 191.85 479.273 191.486 479.273C191.086 479.273 190.739 479.372 190.447 479.571C190.157 479.767 189.934 480.023 189.778 480.338C189.621 480.653 189.543 480.991 189.543 481.352V481.932C189.543 482.426 189.628 482.845 189.799 483.189C189.972 483.53 190.212 483.79 190.519 483.969C190.826 484.145 191.182 484.233 191.589 484.233C191.853 484.233 192.091 484.196 192.305 484.122C192.52 484.045 192.706 483.932 192.863 483.781C193.019 483.628 193.14 483.437 193.225 483.21L194.197 483.483C194.094 483.812 193.922 484.102 193.681 484.352C193.439 484.599 193.141 484.793 192.786 484.932C192.431 485.068 192.032 485.136 191.589 485.136ZM199.868 478.455V479.392H196.834V485H195.829V478.455H199.868ZM202.342 483.517L205.496 478.455H206.655V485H205.649V479.938L202.513 485H201.336V478.455H202.342V483.517ZM211.156 485.136C210.542 485.136 210.014 484.991 209.57 484.702C209.127 484.412 208.786 484.013 208.548 483.504C208.309 482.996 208.19 482.415 208.19 481.761C208.19 481.097 208.312 480.51 208.556 480.001C208.803 479.49 209.147 479.091 209.588 478.804C210.031 478.514 210.548 478.369 211.139 478.369C211.599 478.369 212.014 478.455 212.383 478.625C212.752 478.795 213.055 479.034 213.291 479.341C213.526 479.648 213.673 480.006 213.73 480.415H212.724C212.647 480.116 212.477 479.852 212.213 479.622C211.951 479.389 211.599 479.273 211.156 479.273C210.764 479.273 210.42 479.375 210.124 479.58C209.832 479.781 209.603 480.067 209.438 480.436C209.276 480.803 209.195 481.233 209.195 481.727C209.195 482.233 209.275 482.673 209.434 483.048C209.596 483.423 209.823 483.714 210.116 483.922C210.411 484.129 210.758 484.233 211.156 484.233C211.417 484.233 211.654 484.188 211.867 484.097C212.08 484.006 212.261 483.875 212.409 483.705C212.556 483.534 212.661 483.33 212.724 483.091H213.73C213.673 483.477 213.532 483.825 213.308 484.135C213.086 484.442 212.792 484.686 212.426 484.868C212.062 485.047 211.639 485.136 211.156 485.136ZM214.684 479.392V478.455H220.002V479.392H217.855V485H216.849V479.392H214.684ZM221.469 487.455V478.455H222.441V479.494H222.56C222.634 479.381 222.736 479.236 222.867 479.06C223.001 478.881 223.191 478.722 223.438 478.582C223.688 478.44 224.026 478.369 224.452 478.369C225.003 478.369 225.489 478.507 225.91 478.783C226.33 479.058 226.658 479.449 226.894 479.955C227.13 480.46 227.248 481.057 227.248 481.744C227.248 482.438 227.13 483.038 226.894 483.547C226.658 484.053 226.331 484.445 225.914 484.723C225.496 484.999 225.015 485.136 224.469 485.136C224.049 485.136 223.712 485.067 223.459 484.928C223.206 484.786 223.012 484.625 222.876 484.446C222.739 484.264 222.634 484.114 222.56 483.994H222.475V487.455H221.469ZM222.458 481.727C222.458 482.222 222.53 482.658 222.675 483.036C222.82 483.411 223.032 483.705 223.31 483.918C223.589 484.128 223.93 484.233 224.333 484.233C224.753 484.233 225.104 484.122 225.385 483.901C225.67 483.676 225.883 483.375 226.025 482.997C226.17 482.616 226.242 482.193 226.242 481.727C226.242 481.267 226.171 480.852 226.029 480.483C225.89 480.111 225.678 479.817 225.394 479.601C225.113 479.382 224.759 479.273 224.333 479.273C223.924 479.273 223.58 479.376 223.302 479.584C223.023 479.788 222.813 480.075 222.671 480.445C222.529 480.811 222.458 481.239 222.458 481.727ZM229.787 483.517L232.941 478.455H234.1V485H233.094V479.938L229.958 485H228.782V478.455H229.787V483.517ZM235.942 487.455V478.455H236.914V479.494H237.033C237.107 479.381 237.209 479.236 237.34 479.06C237.473 478.881 237.664 478.722 237.911 478.582C238.161 478.44 238.499 478.369 238.925 478.369C239.476 478.369 239.962 478.507 240.382 478.783C240.803 479.058 241.131 479.449 241.367 479.955C241.602 480.46 241.72 481.057 241.72 481.744C241.72 482.438 241.602 483.038 241.367 483.547C241.131 484.053 240.804 484.445 240.387 484.723C239.969 484.999 239.487 485.136 238.942 485.136C238.521 485.136 238.185 485.067 237.932 484.928C237.679 484.786 237.485 484.625 237.348 484.446C237.212 484.264 237.107 484.114 237.033 483.994H236.948V487.455H235.942ZM236.931 481.727C236.931 482.222 237.003 482.658 237.148 483.036C237.293 483.411 237.504 483.705 237.783 483.918C238.061 484.128 238.402 484.233 238.806 484.233C239.226 484.233 239.577 484.122 239.858 483.901C240.142 483.676 240.355 483.375 240.497 482.997C240.642 482.616 240.715 482.193 240.715 481.727C240.715 481.267 240.644 480.852 240.502 480.483C240.362 480.111 240.151 479.817 239.867 479.601C239.585 479.382 239.232 479.273 238.806 479.273C238.396 479.273 238.053 479.376 237.774 479.584C237.496 479.788 237.286 480.075 237.144 480.445C237.002 480.811 236.931 481.239 236.931 481.727ZM243.668 487.455C243.497 487.455 243.345 487.44 243.212 487.412C243.078 487.386 242.986 487.361 242.935 487.335L243.191 486.449C243.435 486.511 243.651 486.534 243.838 486.517C244.026 486.5 244.192 486.416 244.337 486.266C244.485 486.118 244.619 485.878 244.742 485.545L244.929 485.034L242.509 478.455H243.6L245.406 483.67H245.475L247.281 478.455H248.372L245.594 485.955C245.469 486.293 245.314 486.572 245.129 486.794C244.945 487.018 244.73 487.185 244.486 487.293C244.244 487.401 243.972 487.455 243.668 487.455ZM250.705 483.517L253.859 478.455H255.018V485H254.012V479.938L250.876 485H249.7V478.455H250.705V483.517ZM253.194 476.273H254.132C254.132 476.733 253.972 477.109 253.654 477.402C253.336 477.695 252.904 477.841 252.359 477.841C251.822 477.841 251.394 477.695 251.076 477.402C250.761 477.109 250.603 476.733 250.603 476.273H251.541C251.541 476.494 251.602 476.689 251.724 476.857C251.849 477.024 252.061 477.108 252.359 477.108C252.657 477.108 252.87 477.024 252.998 476.857C253.129 476.689 253.194 476.494 253.194 476.273ZM255.969 479.392V478.455H261.287V479.392H259.14V485H258.134V479.392H255.969ZM265.159 485.136C264.528 485.136 263.984 484.997 263.527 484.719C263.072 484.438 262.721 484.045 262.474 483.543C262.23 483.037 262.108 482.449 262.108 481.778C262.108 481.108 262.23 480.517 262.474 480.006C262.721 479.491 263.065 479.091 263.506 478.804C263.949 478.514 264.466 478.369 265.057 478.369C265.398 478.369 265.734 478.426 266.067 478.54C266.399 478.653 266.702 478.838 266.974 479.094C267.247 479.347 267.464 479.682 267.626 480.099C267.788 480.517 267.869 481.031 267.869 481.642V482.068H262.824V481.199H266.846C266.846 480.83 266.773 480.5 266.625 480.21C266.48 479.92 266.273 479.692 266.003 479.524C265.736 479.357 265.42 479.273 265.057 479.273C264.656 479.273 264.309 479.372 264.017 479.571C263.727 479.767 263.504 480.023 263.348 480.338C263.192 480.653 263.113 480.991 263.113 481.352V481.932C263.113 482.426 263.199 482.845 263.369 483.189C263.542 483.53 263.782 483.79 264.089 483.969C264.396 484.145 264.753 484.233 265.159 484.233C265.423 484.233 265.662 484.196 265.875 484.122C266.091 484.045 266.277 483.932 266.433 483.781C266.589 483.628 266.71 483.437 266.795 483.21L267.767 483.483C267.665 483.812 267.493 484.102 267.251 484.352C267.01 484.599 266.711 484.793 266.356 484.932C266.001 485.068 265.602 485.136 265.159 485.136ZM272.058 485.136C271.444 485.136 270.916 484.991 270.473 484.702C270.03 484.412 269.689 484.013 269.45 483.504C269.211 482.996 269.092 482.415 269.092 481.761C269.092 481.097 269.214 480.51 269.459 480.001C269.706 479.49 270.05 479.091 270.49 478.804C270.933 478.514 271.45 478.369 272.041 478.369C272.501 478.369 272.916 478.455 273.285 478.625C273.655 478.795 273.957 479.034 274.193 479.341C274.429 479.648 274.575 480.006 274.632 480.415H273.626C273.55 480.116 273.379 479.852 273.115 479.622C272.854 479.389 272.501 479.273 272.058 479.273C271.666 479.273 271.322 479.375 271.027 479.58C270.734 479.781 270.506 480.067 270.341 480.436C270.179 480.803 270.098 481.233 270.098 481.727C270.098 482.233 270.177 482.673 270.336 483.048C270.498 483.423 270.726 483.714 271.018 483.922C271.314 484.129 271.66 484.233 272.058 484.233C272.319 484.233 272.557 484.188 272.77 484.097C272.983 484.006 273.163 483.875 273.311 483.705C273.459 483.534 273.564 483.33 273.626 483.091H274.632C274.575 483.477 274.434 483.825 274.21 484.135C273.988 484.442 273.694 484.686 273.328 484.868C272.964 485.047 272.541 485.136 272.058 485.136ZM276.971 480.824H278.846C279.613 480.824 280.2 481.018 280.606 481.408C281.013 481.797 281.216 482.29 281.216 482.886C281.216 483.278 281.125 483.635 280.943 483.956C280.761 484.274 280.494 484.528 280.142 484.719C279.79 484.906 279.358 485 278.846 485H276.102V478.455H277.108V484.062H278.846C279.244 484.062 279.571 483.957 279.827 483.747C280.082 483.537 280.21 483.267 280.21 482.938C280.21 482.591 280.082 482.308 279.827 482.089C279.571 481.871 279.244 481.761 278.846 481.761H276.971V480.824Z" fill="#B223CA"/>
<ellipse cx="87.5" cy="525.5" rx="18.5" ry="17.5" fill="#D9D9D9"/>
<ellipse cx="134.5" cy="525.5" rx="18.5" ry="17.5" fill="#D9D9D9"/>
<ellipse cx="179.5" cy="525.5" rx="18.5" ry="17.5" fill="#D9D9D9"/>
<ellipse cx="226.5" cy="525.5" rx="18.5" ry="17.5" fill="#D9D9D9"/>
<ellipse cx="273.5" cy="525.5" rx="18.5" ry="17.5" fill="#D9D9D9"/>
<defs>
<filter id="filter0_d_9_23" x="40" y="239" width="281" height="330" filterUnits="userSpaceOnUse" color-interpolation-filters="sRGB">
<feFlood flood-opacity="0" result="BackgroundImageFix"/>
<feColorMatrix in="SourceAlpha" type="matrix" values="0 0 0 0 0 0 0 0 0 0 0 0 0 0 0 0 0 0 127 0" result="hardAlpha"/>
<feOffset dy="4"/>
<feGaussianBlur stdDeviation="2"/>
<feComposite in2="hardAlpha" operator="out"/>
<feColorMatrix type="matrix" values="0 0 0 0 0 0 0 0 0 0 0 0 0 0 0 0 0 0 0.25 0"/>
<feBlend mode="normal" in2="BackgroundImageFix" result="effect1_dropShadow_9_23"/>
<feBlend mode="normal" in="SourceGraphic" in2="effect1_dropShadow_9_23" result="shape"/>
</filter>
<linearGradient id="paint0_linear_9_23" x1="180" y1="-1.44541e-07" x2="188.5" y2="800" gradientUnits="userSpaceOnUse">
<stop stop-color="#4D3CC1"/>
<stop offset="0.9996" stop-color="#E7B3DA"/>
<stop offset="0.9997" stop-color="#F8F4FC" stop-opacity="0.055"/>
<stop offset="0.9998" stop-color="#FAF7FD" stop-opacity="0.04"/>
<stop offset="0.9999" stop-color="#8127DB" stop-opacity="0"/>
<stop offset="1" stop-color="#8127DB" stop-opacity="0"/>
</linearGradient>
<linearGradient id="paint1_linear_9_23" x1="69" y1="405" x2="295.5" y2="405" gradientUnits="userSpaceOnUse">
<stop offset="0.455" stop-color="#B223CA"/>
<stop offset="0.9997" stop-color="#7E89E8" stop-opacity="0.651193"/>
<stop offset="0.9998" stop-color="#941963" stop-opacity="0.455501"/>
<stop offset="0.9999" stop-color="#8766E3" stop-opacity="0.293578"/>
<stop offset="1" stop-color="#4F43D7" stop-opacity="0"/>
</linearGradient>
</defs>
</svg>
