<svg width="20" height="20" viewBox="0 0 20 20" fill="none" xmlns="http://www.w3.org/2000/svg">
<path d="M19.6565 9.56557C19.6161 9.51443 18.647 8.29878 16.9857 7.07823C14.7655 5.44716 12.3499 4.58502 9.99998 4.58502C7.64999 4.58502 5.23436 5.44716 3.01428 7.07823C1.35295 8.29874 0.383894 9.51443 0.343482 9.56557L0 9.99999L0.343482 10.4345C0.383894 10.4856 1.35295 11.7013 3.01428 12.9218C5.23441 14.553 7.64999 15.415 9.99998 15.415C12.3499 15.415 14.7655 14.553 16.9857 12.9218C18.647 11.7013 19.6161 10.4856 19.6565 10.4345L20 9.99999L19.6565 9.56557ZM9.99998 13.6647C7.97928 13.6647 6.33534 12.0207 6.33534 10C6.33534 7.97934 7.97928 6.3354 9.99998 6.3354C12.0207 6.3354 13.6647 7.97934 13.6647 10C13.6647 12.0207 12.0207 13.6647 9.99998 13.6647ZM1.82512 9.99999C2.22779 9.56776 2.93371 8.87195 3.87563 8.18394C4.4847 7.7391 5.25227 7.25656 6.14239 6.85708C5.44233 7.71475 5.02184 8.80912 5.02184 9.99995C5.02184 11.1908 5.44233 12.2851 6.14239 13.1428C5.25231 12.7433 4.4847 12.2608 3.87567 11.8159C2.93358 11.128 2.22762 10.4321 1.82512 9.99999ZM16.1243 11.816C15.5152 12.2609 14.7476 12.7435 13.8576 13.1429C14.5576 12.2853 14.9782 11.1909 14.9782 10.0001C14.9782 8.80925 14.5576 7.71489 13.8576 6.85721C14.7477 7.25669 15.5153 7.73927 16.1243 8.18407C17.0663 8.87213 17.7723 9.56802 18.1748 10.0001C17.7722 10.4322 17.0662 11.1281 16.1243 11.816Z" fill="#9250D3"/>
<path d="M9.79198 7.39217C8.58736 7.5673 7.56817 8.76837 7.96393 10C8.32427 9.11041 9.07853 8.51176 9.969 8.55878C10.6842 8.59657 11.4569 9.35726 11.4397 9.96984C11.5048 10.9509 10.8825 11.6795 9.99991 12.036C12.0433 12.702 13.2047 10.0934 12.2687 8.56171C11.7441 7.70338 10.7694 7.27816 9.79198 7.39217Z" fill="#9250D3"/>
</svg>
