<svg width="20" height="18" viewBox="0 0 20 18" fill="none" xmlns="http://www.w3.org/2000/svg">
<path d="M17.0309 9.13787L17.0306 9.13826C16.5495 9.73688 16.0005 10.2775 15.3945 10.7493C15.3906 10.7522 15.3874 10.7547 15.3856 10.7562L15.3827 10.7584C15.3821 10.7589 15.3819 10.759 15.382 10.759L15.382 10.759L15.3804 10.7602C13.882 11.9256 12.0333 12.5499 10.1351 12.5316L10.1322 12.5316C8.23352 12.55 6.38447 11.9254 4.88581 10.7594L4.88581 10.7594L4.88449 10.7584L4.88011 10.7549C4.87792 10.7532 4.87427 10.7503 4.86986 10.747C4.26503 10.2758 3.71696 9.73592 3.23666 9.13825L3.23641 9.13795C3.17246 9.05879 3.09353 8.993 3.00415 8.94433C2.91477 8.89567 2.81667 8.86509 2.71547 8.85434C2.61427 8.84359 2.51194 8.85287 2.41433 8.88166C2.31671 8.91046 2.22573 8.9582 2.14656 9.02215C2.0674 9.08611 2.00161 9.16504 1.95294 9.25442C1.90428 9.3438 1.8737 9.4419 1.86295 9.5431C1.8522 9.6443 1.86148 9.74663 1.89028 9.84424C1.91905 9.94179 1.96674 10.0327 2.03063 10.1118C2.45006 10.6325 2.9133 11.1161 3.41526 11.5575L1.95384 14.0887C1.95384 14.0887 1.95384 14.0887 1.95384 14.0887C1.90295 14.1768 1.86992 14.2741 1.85663 14.375C1.84335 14.4759 1.85006 14.5785 1.8764 14.6768C1.90274 14.7751 1.94818 14.8672 2.01013 14.948C2.07208 15.0287 2.14933 15.0964 2.23746 15.1473C2.3256 15.1982 2.42289 15.2313 2.52379 15.2445C2.62469 15.2578 2.72722 15.2511 2.82552 15.2248C2.92383 15.1984 3.01598 15.153 3.09672 15.091C3.17746 15.0291 3.24521 14.9518 3.2961 14.8637L3.2961 14.8637L4.6611 12.4995C5.44522 13.0067 6.29784 13.3993 7.19309 13.6653L6.76222 16.1091L6.76222 16.1091C6.72656 16.3115 6.77277 16.5198 6.89067 16.6882C7.00858 16.8566 7.18852 16.9712 7.39094 17.0069L7.39108 17.0069C7.43568 17.0147 7.48088 17.0187 7.52617 17.0187H7.52647C7.70851 17.0184 7.88465 16.9541 8.02403 16.837C8.1634 16.7199 8.25711 16.5575 8.28874 16.3782L8.28874 16.3782L8.71027 13.9873C9.65268 14.1127 10.6075 14.113 11.55 13.9883L11.9716 16.3792L11.9717 16.3793C12.0033 16.5585 12.097 16.7209 12.2364 16.838C12.3758 16.9551 12.5519 17.0194 12.7339 17.0197H12.7342C12.7795 17.0197 12.8247 17.0157 12.8694 17.0079L12.8696 17.0079C13.072 16.9721 13.2519 16.8575 13.3698 16.6891C13.4877 16.5207 13.5338 16.3124 13.4982 16.11L13.4982 16.11L13.0674 13.6674C13.9639 13.4017 14.8176 13.0091 15.6028 12.5017L16.9594 14.8513L17.0893 14.7763L16.9594 14.8513C17.0622 15.0293 17.2315 15.1592 17.43 15.2124C17.6285 15.2656 17.84 15.2377 18.018 15.135C18.196 15.0322 18.3259 14.8629 18.3791 14.6644C18.4323 14.4659 18.4044 14.2543 18.3017 14.0763L16.8489 11.5602C17.352 11.1181 17.8163 10.6336 18.2366 10.1119C18.3655 9.95202 18.4258 9.74745 18.404 9.54317C18.3822 9.33889 18.2802 9.15162 18.1204 9.02252C17.9606 8.89341 17.7561 8.83304 17.5518 8.85467C17.3475 8.8763 17.1601 8.97816 17.0309 9.13787Z" fill="#9250D3" stroke="#9250D3" stroke-width="0.3"/>
</svg>
