<svg width="28" height="28" viewBox="0 0 28 28" fill="none" xmlns="http://www.w3.org/2000/svg">
<rect width="28" height="28" rx="14" fill="#233056"/>
<path fill-rule="evenodd" clip-rule="evenodd" d="M20.6612 8.32308L20.8686 15.3465H22.6532L22.8557 8.32308H20.6612ZM21.7609 18.8172C22.3656 18.8172 22.8557 18.3266 22.8557 17.7214C22.8557 17.1163 22.3656 16.6257 21.7609 16.6257C21.1562 16.6257 20.6661 17.1163 20.6661 17.7214C20.6661 18.3266 21.1562 18.8172 21.7609 18.8172ZM23.8107 8.32308L24.0133 15.3465H25.7978L26.0004 8.32308H23.8107ZM24.9056 18.8172C25.5102 18.8172 26.0004 18.3266 26.0004 17.7214C26.0004 17.1163 25.5102 16.6257 24.9056 16.6257C24.3009 16.6257 23.8107 17.1163 23.8107 17.7214C23.8107 18.3266 24.3009 18.8172 24.9056 18.8172ZM17.9796 13.3481H17.7915H14.9362V15.3562H17.4153C16.6388 16.4374 15.1726 16.9877 13.6581 16.365C12.9829 16.0851 12.4379 15.5492 12.1533 14.8735C11.2273 12.6482 12.8334 10.5146 14.9362 10.5146C15.0327 10.5146 15.1292 10.5194 15.2256 10.5291C15.2449 10.5291 15.2642 10.5339 15.2835 10.5339C15.3028 10.5339 15.3173 10.5387 15.3366 10.5387C15.3559 10.5435 15.3751 10.5435 15.3944 10.5484C15.4137 10.5532 15.4282 10.5532 15.4475 10.558C15.4668 10.5629 15.4861 10.5629 15.5054 10.5677C15.5247 10.5725 15.5391 10.5725 15.5536 10.5773C15.5729 10.5822 15.5922 10.587 15.6115 10.587C15.6259 10.5918 15.6452 10.5966 15.6597 10.5966C15.679 10.6015 15.6983 10.6063 15.7128 10.6111C15.7272 10.6159 15.7465 10.6208 15.761 10.6256C15.7803 10.6304 15.7948 10.6353 15.814 10.6401C15.8285 10.6449 15.8478 10.6497 15.8623 10.6546C15.8816 10.6594 15.896 10.6642 15.9153 10.6739C15.9298 10.6787 15.9491 10.6835 15.9636 10.6884C15.9829 10.6932 15.9973 10.7028 16.0166 10.7077C16.0311 10.7125 16.0504 10.7221 16.0648 10.727C16.0841 10.7318 16.0986 10.7415 16.1179 10.7463C16.1324 10.7511 16.1517 10.7608 16.1661 10.7656C16.1806 10.7752 16.1999 10.7801 16.2144 10.7897C16.2288 10.7946 16.2433 10.8042 16.2626 10.809C16.2771 10.8187 16.2964 10.8235 16.3108 10.8332C16.3253 10.8428 16.3398 10.8476 16.3542 10.8573C16.3687 10.867 16.388 10.8766 16.4025 10.8814C16.4169 10.8911 16.4314 10.8959 16.4459 10.9056C16.4603 10.9152 16.4796 10.9249 16.4941 10.9345C16.5086 10.9442 16.523 10.9538 16.5375 10.9587C16.6967 11.0552 16.8414 11.1662 16.9812 11.2917L18.5294 9.74224C18.3365 9.55881 18.1291 9.39469 17.9121 9.24022C17.9024 9.23057 17.888 9.22574 17.8735 9.21609C17.8397 9.19195 17.806 9.16782 17.7674 9.14851C17.7481 9.13403 17.7288 9.12437 17.7047 9.10989C17.6709 9.08576 17.6323 9.06645 17.5986 9.04231C17.5793 9.03266 17.56 9.01818 17.5359 9.00852C17.4973 8.98922 17.4635 8.96508 17.425 8.94577C17.4057 8.93612 17.3864 8.92646 17.3671 8.91681C17.3285 8.8975 17.2899 8.87336 17.2513 8.85406C17.232 8.8444 17.2176 8.83475 17.1983 8.82992C17.1549 8.81061 17.1115 8.7913 17.0729 8.772C16.9619 8.72372 16.8607 8.68028 16.7594 8.64166C16.7449 8.63684 16.7256 8.62718 16.7111 8.62236C16.6774 8.60787 16.6388 8.59822 16.6002 8.58374C16.5713 8.57408 16.5423 8.56443 16.5134 8.55478C16.4796 8.54512 16.4459 8.53547 16.4121 8.52581C16.3783 8.51616 16.3494 8.5065 16.3156 8.49685C16.2819 8.4872 16.2481 8.47754 16.2144 8.47272C16.1806 8.46306 16.1468 8.45341 16.1131 8.44858C16.0793 8.43893 16.0456 8.4341 16.0166 8.42927C15.9829 8.41962 15.9443 8.41479 15.9105 8.40996C15.8767 8.40514 15.8478 8.40031 15.814 8.39065C15.7755 8.38583 15.7417 8.37617 15.7031 8.37135C15.6694 8.36652 15.6404 8.36169 15.6067 8.35686C15.5681 8.35204 15.5295 8.34721 15.4957 8.34238C15.462 8.33756 15.433 8.33756 15.3993 8.33273C15.3607 8.3279 15.3221 8.3279 15.2835 8.32308C15.2642 8.32308 15.2449 8.31825 15.2256 8.31825C15.1147 8.31342 15.0231 8.30859 14.9314 8.30859C11.4106 8.30859 8.69517 11.7841 10.036 15.501C10.5424 16.9105 11.6758 18.0062 13.089 18.4938C16.1083 19.5268 18.949 17.8904 19.8654 15.3369C20.0584 14.801 20.0198 14.5693 20.0294 13.9708V13.6136V13.3481L17.9796 13.3481ZM8.93633 13.7536H8.66141H8.29003H7.70162H7.4267H6.77076H5.98942H5.71451V14.0287V15.0714V15.3465H5.98942H6.77076H7.11803H7.42188C7.42188 15.3948 7.41706 15.4382 7.41223 15.4865C7.40741 15.5444 7.39776 15.5975 7.38812 15.6506C7.38812 15.6603 7.3833 15.6748 7.3833 15.6844C7.3833 15.6892 7.37847 15.6989 7.37847 15.7037C7.37365 15.723 7.36883 15.7423 7.364 15.7616C7.364 15.7713 7.35918 15.7809 7.35436 15.7858C7.34953 15.8051 7.34471 15.8196 7.33989 15.8389C7.33506 15.8485 7.33506 15.8582 7.33024 15.863C7.32542 15.8775 7.3206 15.8968 7.31095 15.9113C7.30613 15.9209 7.30613 15.9258 7.3013 15.9354C7.29648 15.9499 7.28683 15.9692 7.28201 15.9837C7.27719 15.9933 7.27719 15.9982 7.27236 16.0078C7.26272 16.0271 7.25307 16.0464 7.24825 16.0609C7.24343 16.0657 7.24343 16.0706 7.24343 16.0754C7.20966 16.1478 7.16626 16.2154 7.12285 16.283C7.12285 16.283 7.12285 16.283 7.12285 16.2878C7.10838 16.3071 7.09391 16.3312 7.07944 16.3505L7.07462 16.3554C7.06015 16.3747 7.04568 16.394 7.02639 16.4133L7.02156 16.4181C7.00709 16.4374 6.9878 16.4567 6.96851 16.4761C6.65501 16.8139 6.20646 17.0263 5.71451 17.0263C4.77401 17.0263 4.00231 16.254 4.00231 15.3127V13.1888C4.00231 12.2523 4.77401 11.48 5.71451 11.48C5.79168 11.48 5.87367 11.4848 5.95084 11.4945C5.96049 11.4945 5.97013 11.4993 5.97978 11.4993C5.99907 11.5041 6.01354 11.5041 6.03283 11.509C6.03766 11.509 6.04248 11.509 6.0473 11.5138C6.34633 11.5717 6.61643 11.7117 6.84311 11.9048C6.87205 11.9337 6.90099 11.9579 6.92993 11.9868C6.93957 11.9965 6.94922 12.0062 6.95886 12.0158C7.04086 12.1027 7.11803 12.1992 7.18073 12.3006L7.40259 12.0786L8.27557 11.2049L8.4492 11.0311C8.40097 10.9587 8.34309 10.8911 8.28521 10.8283C8.26592 10.809 8.25145 10.7897 8.23216 10.7704C8.22251 10.7608 8.21287 10.7511 8.20322 10.7415C8.17428 10.7125 8.14534 10.6835 8.1164 10.6546C8.10194 10.6401 8.09229 10.6304 8.07782 10.6208C8.0537 10.6015 8.03441 10.5822 8.0103 10.558C7.991 10.5387 7.97171 10.5242 7.95242 10.5098C7.9283 10.4904 7.90419 10.4711 7.8849 10.4518C7.8656 10.4373 7.84149 10.418 7.8222 10.4036C7.79808 10.3842 7.77397 10.3649 7.74985 10.3505C7.73056 10.336 7.70644 10.3215 7.68715 10.307L7.68233 10.3022C7.64374 10.2732 7.60516 10.2491 7.56175 10.225L7.55693 10.2201C7.53281 10.2056 7.50387 10.1863 7.47976 10.1719C7.45564 10.1574 7.43153 10.1477 7.40741 10.1332C7.3833 10.1188 7.35436 10.1043 7.33024 10.0898C7.30613 10.0753 7.28201 10.0657 7.2579 10.0512C7.22896 10.0367 7.20484 10.027 7.1759 10.0126C7.15179 10.0029 7.12767 9.98843 7.10356 9.97877C7.07462 9.96912 7.0505 9.95464 7.02156 9.94498C6.99745 9.93533 6.97333 9.92567 6.94439 9.91602C6.91546 9.90636 6.88652 9.89671 6.85758 9.88706C6.83346 9.8774 6.80453 9.86775 6.78041 9.86292C6.75147 9.85327 6.72253 9.84361 6.68877 9.83396C6.66466 9.8243 6.63572 9.81948 6.6116 9.81465C6.58266 9.805 6.5489 9.80017 6.51996 9.79051C6.49585 9.78569 6.46691 9.78086 6.44279 9.77121C6.40903 9.76638 6.37527 9.75672 6.34633 9.7519C6.32222 9.74707 6.2981 9.74224 6.27399 9.73742C6.24022 9.73259 6.20646 9.72776 6.16788 9.72293C6.14376 9.71811 6.11965 9.71811 6.09553 9.71328C6.05695 9.70845 6.01836 9.70845 5.97496 9.70363C5.95566 9.70363 5.93637 9.6988 5.91708 9.6988C5.83509 9.6988 5.77721 9.69397 5.71451 9.69397C3.7901 9.69397 2.21777 11.2724 2.21777 13.1936V15.3175C2.21777 17.2436 3.7901 18.8172 5.71451 18.8172H5.98942C7.76432 18.8172 9.21124 17.3642 9.21124 15.5927V15.3175V14.328V14.1253V14.0287V13.7536H8.93633Z" fill="white"/>
</svg>
