<svg width="20" height="20" viewBox="0 0 20 20" fill="none" xmlns="http://www.w3.org/2000/svg">
<path d="M16.9059 6.38787L16.9056 6.38826C16.4245 6.98688 15.8755 7.52754 15.2695 7.99933C15.2656 8.00221 15.2624 8.00472 15.2606 8.0062L15.2577 8.00844C15.2571 8.00893 15.2569 8.00904 15.257 8.00898L15.257 8.00897L15.2554 8.0102C13.757 9.17563 11.9083 9.79994 10.0101 9.7816L10.0072 9.78163C8.10852 9.79996 6.25947 9.17535 4.76081 8.00941L4.76081 8.0094L4.75949 8.0084L4.75511 8.00492C4.75292 8.00318 4.74927 8.00028 4.74486 7.99702C4.14003 7.52579 3.59196 6.98592 3.11166 6.38825L3.11141 6.38795C3.04746 6.30879 2.96853 6.243 2.87915 6.19433C2.78977 6.14567 2.69167 6.11509 2.59047 6.10434C2.48927 6.09359 2.38694 6.10287 2.28933 6.13166C2.19171 6.16046 2.10073 6.2082 2.02156 6.27215C1.9424 6.33611 1.87661 6.41504 1.82794 6.50442C1.77928 6.5938 1.7487 6.6919 1.73795 6.7931C1.7272 6.8943 1.73648 6.99663 1.76528 7.09424C1.79405 7.19179 1.84174 7.28272 1.90563 7.36184C2.32506 7.88247 2.7883 8.3661 3.29026 8.80747L1.82884 11.3387C1.82884 11.3387 1.82884 11.3387 1.82884 11.3387C1.77795 11.4268 1.74492 11.5241 1.73163 11.625C1.71835 11.7259 1.72506 11.8285 1.7514 11.9268C1.77774 12.0251 1.82318 12.1172 1.88513 12.198C1.94708 12.2787 2.02433 12.3464 2.11246 12.3973C2.2006 12.4482 2.29789 12.4813 2.39879 12.4945C2.49969 12.5078 2.60222 12.5011 2.70052 12.4748C2.79883 12.4484 2.89098 12.403 2.97172 12.341C3.05246 12.2791 3.12021 12.2018 3.1711 12.1137L3.1711 12.1137L4.5361 9.74948C5.32022 10.2567 6.17284 10.6493 7.06809 10.9153L6.63722 13.3591L6.63722 13.3591C6.60156 13.5615 6.64777 13.7698 6.76567 13.9382C6.88358 14.1066 7.06352 14.2212 7.26594 14.2569L7.26608 14.2569C7.31068 14.2647 7.35588 14.2687 7.40117 14.2687H7.40147C7.58351 14.2684 7.75965 14.2041 7.89903 14.087C8.0384 13.9699 8.13211 13.8075 8.16374 13.6282L8.16374 13.6282L8.58527 11.2373C9.52768 11.3627 10.4825 11.363 11.425 11.2383L11.8466 13.6292L11.8467 13.6293C11.8783 13.8085 11.972 13.9709 12.1114 14.088C12.2508 14.2051 12.4269 14.2694 12.6089 14.2697H12.6092C12.6545 14.2697 12.6997 14.2657 12.7444 14.2579L12.7446 14.2579C12.947 14.2221 13.1269 14.1075 13.2448 13.9391C13.3627 13.7707 13.4088 13.5624 13.3732 13.36L13.3732 13.36L12.9424 10.9174C13.8389 10.6517 14.6926 10.2591 15.4778 9.75168L16.8344 12.1013L16.9643 12.0263L16.8344 12.1013C16.9372 12.2793 17.1065 12.4092 17.305 12.4624C17.5035 12.5156 17.715 12.4877 17.893 12.385C18.071 12.2822 18.2009 12.1129 18.2541 11.9144C18.3073 11.7159 18.2794 11.5043 18.1767 11.3263L16.7239 8.81021C17.227 8.36812 17.6913 7.88359 18.1116 7.36192C18.2405 7.20202 18.3008 6.99745 18.279 6.79317C18.2572 6.58889 18.1552 6.40162 17.9954 6.27252C17.8356 6.14341 17.6311 6.08304 17.4268 6.10467C17.2225 6.1263 17.0351 6.22816 16.9059 6.38787Z" fill="#9250D3" stroke="#9250D3" stroke-width="0.3"/>
</svg>
