<svg width="200" height="31" viewBox="0 0 200 31" fill="none" xmlns="http://www.w3.org/2000/svg">
<path d="M192.368 13.1264L192.366 13.126C190.711 12.7851 189.255 11.8033 188.317 10.3947C187.379 8.98639 187.033 7.26566 187.355 5.60711C187.69 3.94127 188.664 2.47496 190.069 1.52352C191.473 0.572186 193.196 0.211516 194.867 0.519446C195.696 0.685387 196.483 1.01471 197.184 1.48817C197.886 1.96198 198.486 2.57064 198.951 3.27856L199.15 3.14571L198.951 3.27856C199.416 3.9865 199.735 4.77956 199.891 5.61144C200.047 6.44335 200.036 7.29746 199.859 8.12407L199.857 8.13077C199.704 8.95702 199.388 9.74381 198.926 10.4448C198.464 11.1459 197.867 11.747 197.169 12.2126L197.301 12.4134L197.169 12.2126C196.472 12.6783 195.687 12.9991 194.862 13.1561L194.907 13.3926L194.862 13.1561C194.038 13.313 193.19 13.303 192.368 13.1264Z" fill="url(#paint0_linear_6253_26914)"/>
<path d="M193.412 28.8769L193.411 28.8767C192.633 28.7192 191.949 28.2654 191.508 27.6143C191.066 26.9633 190.904 26.1679 191.055 25.4013C191.213 24.6313 191.671 23.9535 192.331 23.5137C192.991 23.074 193.801 22.9073 194.587 23.0496C194.976 23.1263 195.347 23.2785 195.676 23.4974C196.006 23.7164 196.288 23.9977 196.507 24.325L196.6 24.2636L196.507 24.325C196.725 24.6522 196.875 25.0188 196.949 25.4033C197.022 25.7878 197.017 26.1826 196.933 26.5647L196.933 26.5678C196.861 26.9497 196.712 27.3134 196.495 27.6374C196.278 27.9615 195.997 28.2393 195.669 28.4546L195.731 28.5474L195.669 28.4546C195.341 28.6698 194.972 28.8181 194.585 28.8907L194.606 29L194.585 28.8907C194.197 28.9632 193.798 28.9586 193.412 28.8769Z" fill="url(#paint1_linear_6253_26914)"/>
<path d="M173.618 8.81539L173.617 8.81511C172.449 8.57881 171.423 7.89803 170.761 6.9214C170.1 5.94495 169.856 4.75189 170.083 3.60194C170.319 2.44693 171.006 1.43027 171.997 0.770591C172.987 0.110989 174.202 -0.139081 175.38 0.0744214C175.965 0.189476 176.52 0.417809 177.014 0.746086C177.509 1.0746 177.932 1.49661 178.26 1.98744L178.4 1.89533L178.26 1.98744C178.588 2.4783 178.813 3.02816 178.923 3.60494C179.033 4.18174 179.025 4.77394 178.9 5.34707L178.899 5.35171C178.791 5.92459 178.568 6.47011 178.243 6.95615C177.917 7.44223 177.496 7.85898 177.004 8.18184L177.097 8.32105L177.004 8.18184C176.512 8.50471 175.959 8.72716 175.377 8.83598L175.408 9L175.377 8.83598C174.796 8.94481 174.198 8.93784 173.618 8.81539Z" fill="url(#paint2_linear_6253_26914)"/>
<path d="M0 15.455H5.18641V17.8819C5.74039 16.9959 6.41854 16.3218 7.22086 15.8595C8.02317 15.378 8.95921 15.1372 10.029 15.1372C10.1627 15.1372 10.306 15.1372 10.4588 15.1372C10.6307 15.1372 10.8217 15.1565 11.0319 15.195V20.1931C10.3442 19.8464 9.59915 19.6731 8.79684 19.6731C7.59336 19.6731 6.68598 20.039 6.07469 20.7709C5.4825 21.4836 5.18641 22.5333 5.18641 23.92V30.276H0V15.455ZM24.2609 20.7132C24.089 19.9813 23.7356 19.3938 23.2007 18.9508C22.6658 18.5078 22.0164 18.2863 21.2522 18.2863C20.4499 18.2863 19.7909 18.4982 19.2751 18.9219C18.7784 19.3457 18.4632 19.9427 18.3295 20.7132H24.2609ZM18.1862 23.7467C18.1862 26.0002 19.2369 27.1269 21.3382 27.1269C22.4653 27.1269 23.3153 26.6647 23.8884 25.7402H28.9029C27.8905 29.13 25.3593 30.8249 21.3096 30.8249C20.0679 30.8249 18.9313 30.642 17.8997 30.276C16.8682 29.8908 15.9799 29.3515 15.2349 28.6581C14.509 27.9648 13.9454 27.1365 13.5443 26.1735C13.1431 25.2105 12.9425 24.1319 12.9425 22.9378C12.9425 21.7051 13.1336 20.5976 13.5156 19.6153C13.8977 18.6138 14.4421 17.7663 15.1489 17.0729C15.8557 16.3795 16.7058 15.8499 17.6991 15.4839C18.7116 15.0987 19.8482 14.9061 21.109 14.9061C22.3507 14.9061 23.4682 15.0987 24.4615 15.4839C25.4549 15.8499 26.2954 16.3892 26.9831 17.1018C27.6708 17.8145 28.1961 18.6908 28.5591 19.7309C28.922 20.7517 29.1035 21.9073 29.1035 23.1978V23.7467H18.1862ZM41.8104 19.2686C40.8553 18.7679 39.9193 18.5175 39.0023 18.5175C38.5248 18.5175 38.1331 18.6138 37.8275 18.8064C37.541 18.999 37.3977 19.259 37.3977 19.5864C37.3977 19.7598 37.4168 19.9042 37.455 20.0198C37.5123 20.1161 37.6174 20.2124 37.7702 20.3087C37.9421 20.405 38.1809 20.4917 38.4866 20.5687C38.8113 20.6458 39.2316 20.7421 39.7473 20.8576C41.18 21.1465 42.2498 21.6666 42.9566 22.4177C43.6634 23.1496 44.0168 24.0934 44.0168 25.249C44.0168 26.1157 43.8449 26.8958 43.501 27.5892C43.1572 28.2825 42.6796 28.87 42.0683 29.3515C41.457 29.8138 40.7216 30.1701 39.862 30.4205C39.0023 30.6901 38.0567 30.8249 37.0252 30.8249C35.0385 30.8249 33.0805 30.2568 31.1511 29.1204L33.0423 25.4224C34.4941 26.4239 35.8695 26.9247 37.1685 26.9247C37.646 26.9247 38.0376 26.8187 38.3433 26.6069C38.6489 26.395 38.8018 26.1254 38.8018 25.7979C38.8018 25.6053 38.7731 25.4513 38.7158 25.3357C38.6776 25.2009 38.5821 25.0853 38.4292 24.989C38.2764 24.8734 38.0472 24.7771 37.7415 24.7001C37.455 24.6038 37.0729 24.5075 36.5954 24.4112C34.9907 24.0838 33.8637 23.6022 33.2142 22.9666C32.5838 22.3118 32.2686 21.4162 32.2686 20.2798C32.2686 19.4516 32.4214 18.7101 32.7271 18.0552C33.0327 17.3811 33.4721 16.8129 34.0451 16.3507C34.6182 15.8884 35.3059 15.5321 36.1083 15.2817C36.9297 15.0313 37.8371 14.9061 38.8304 14.9061C40.4541 14.9061 42.0301 15.2239 43.5583 15.8595L41.8104 19.2686ZM52.827 19.8175V30.276H47.6406V19.8175H45.9214V15.455H47.6406V11.0059H52.827V15.455H55.7784V19.8175H52.827ZM57.7281 15.455H62.9145V17.8819C63.4685 16.9959 64.1466 16.3218 64.9489 15.8595C65.7513 15.378 66.6873 15.1372 67.7571 15.1372C67.8908 15.1372 68.034 15.1372 68.1869 15.1372C68.3588 15.1372 68.5498 15.1565 68.7599 15.195V20.1931C68.0723 19.8464 67.3272 19.6731 66.5249 19.6731C65.3214 19.6731 64.4141 20.039 63.8028 20.7709C63.2106 21.4836 62.9145 22.5333 62.9145 23.92V30.276H57.7281V15.455ZM81.9891 20.7132C81.8172 19.9813 81.4638 19.3938 80.9289 18.9508C80.394 18.5078 79.7445 18.2863 78.9804 18.2863C78.1781 18.2863 77.5191 18.4982 77.0033 18.9219C76.5066 19.3457 76.1914 19.9427 76.0577 20.7132H81.9891ZM75.9144 23.7467C75.9144 26.0002 76.9651 27.1269 79.0664 27.1269C80.1935 27.1269 81.0435 26.6647 81.6166 25.7402H86.6311C85.6187 29.13 83.0875 30.8249 79.0377 30.8249C77.7961 30.8249 76.6594 30.642 75.6279 30.276C74.5963 29.8908 73.7081 29.3515 72.963 28.6581C72.2371 27.9648 71.6736 27.1365 71.2724 26.1735C70.8713 25.2105 70.6707 24.1319 70.6707 22.9378C70.6707 21.7051 70.8617 20.5976 71.2438 19.6153C71.6258 18.6138 72.1703 17.7663 72.8771 17.0729C73.5839 16.3795 74.434 15.8499 75.4273 15.4839C76.4398 15.0987 77.5764 14.9061 78.8372 14.9061C80.0788 14.9061 81.1964 15.0987 82.1897 15.4839C83.183 15.8499 84.0236 16.3892 84.7113 17.1018C85.399 17.8145 85.9243 18.6908 86.2872 19.7309C86.6502 20.7517 86.8317 21.9073 86.8317 23.1978V23.7467H75.9144ZM94.6101 22.8222C94.6101 23.3037 94.6961 23.7563 94.868 24.1801C95.0399 24.5845 95.2691 24.9408 95.5557 25.249C95.8613 25.5572 96.2147 25.7979 96.6159 25.9713C97.0362 26.1446 97.4851 26.2313 97.9626 26.2313C98.4211 26.2313 98.8509 26.1446 99.2521 25.9713C99.6723 25.7979 100.026 25.5572 100.312 25.249C100.618 24.9408 100.857 24.5845 101.029 24.1801C101.22 23.7756 101.315 23.3422 101.315 22.88C101.315 22.4177 101.22 21.9844 101.029 21.5799C100.857 21.1562 100.618 20.7902 100.312 20.482C100.026 20.1739 99.6723 19.9331 99.2521 19.7598C98.8509 19.5864 98.4211 19.4998 97.9626 19.4998C97.4851 19.4998 97.0362 19.5864 96.6159 19.7598C96.2147 19.9331 95.8613 20.1739 95.5557 20.482C95.2691 20.7902 95.0399 21.1465 94.868 21.551C94.6961 21.9362 94.6101 22.3599 94.6101 22.8222ZM101.143 15.455H106.358V30.276H101.143V28.6292C100.035 30.0353 98.5357 30.7383 96.6446 30.7383C95.5748 30.7383 94.591 30.5457 93.6932 30.1604C92.7953 29.756 92.0121 29.1974 91.3435 28.4848C90.6749 27.7721 90.1496 26.9343 89.7675 25.9713C89.4046 25.0083 89.2231 23.9586 89.2231 22.8222C89.2231 21.7629 89.4046 20.7613 89.7675 19.8175C90.1305 18.8545 90.6367 18.0167 91.2862 17.3041C91.9357 16.5914 92.7094 16.0329 93.6072 15.6284C94.505 15.2047 95.4984 14.9928 96.5872 14.9928C98.4211 14.9928 99.9398 15.638 101.143 16.9285V15.455ZM109.888 15.455H115.074V17.2752C116.488 15.9077 118.073 15.2239 119.831 15.2239C122.009 15.2239 123.67 16.1484 124.817 17.9974C125.982 16.1292 127.644 15.195 129.802 15.195C130.49 15.195 131.14 15.301 131.751 15.5128C132.362 15.7054 132.888 16.0232 133.327 16.4662C133.766 16.8899 134.11 17.4485 134.358 18.1419C134.626 18.8353 134.76 19.6731 134.76 20.6554V30.276H129.573V22.9666C129.573 22.2155 129.516 21.5991 129.401 21.1176C129.306 20.6361 129.153 20.2605 128.943 19.9909C128.752 19.7212 128.523 19.5383 128.255 19.442C127.988 19.3457 127.701 19.2975 127.396 19.2975C125.734 19.2975 124.903 20.5206 124.903 22.9666V30.276H119.716V22.9666C119.716 22.2155 119.668 21.5991 119.573 21.1176C119.477 20.6169 119.334 20.222 119.143 19.9331C118.971 19.6442 118.742 19.4516 118.455 19.3553C118.169 19.2397 117.835 19.182 117.453 19.182C117.128 19.182 116.822 19.2301 116.536 19.3264C116.249 19.4227 115.991 19.6153 115.762 19.9042C115.552 20.1739 115.38 20.5591 115.246 21.0599C115.132 21.5414 115.074 22.177 115.074 22.9666V30.276H109.888V15.455ZM138.06 27.5025C138.06 27.0402 138.146 26.6069 138.318 26.2024C138.49 25.7787 138.729 25.4127 139.034 25.1046C139.34 24.7964 139.693 24.5556 140.095 24.3823C140.515 24.2089 140.954 24.1223 141.413 24.1223C141.871 24.1223 142.301 24.2089 142.702 24.3823C143.122 24.5556 143.485 24.7964 143.791 25.1046C144.097 25.4127 144.335 25.7787 144.507 26.2024C144.679 26.6069 144.765 27.0402 144.765 27.5025C144.765 27.9648 144.679 28.4077 144.507 28.8315C144.335 29.2359 144.097 29.5923 143.791 29.9004C143.485 30.2086 143.122 30.4494 142.702 30.6227C142.301 30.796 141.871 30.8827 141.413 30.8827C140.954 30.8827 140.515 30.796 140.095 30.6227C139.693 30.4494 139.34 30.2086 139.034 29.9004C138.729 29.5923 138.49 29.2359 138.318 28.8315C138.146 28.4077 138.06 27.9648 138.06 27.5025ZM157.798 19.2686C156.843 18.7679 155.907 18.5175 154.99 18.5175C154.513 18.5175 154.121 18.6138 153.815 18.8064C153.529 18.999 153.386 19.259 153.386 19.5864C153.386 19.7598 153.405 19.9042 153.443 20.0198C153.5 20.1161 153.605 20.2124 153.758 20.3087C153.93 20.405 154.169 20.4917 154.474 20.5687C154.799 20.6458 155.219 20.7421 155.735 20.8576C157.168 21.1465 158.238 21.6666 158.945 22.4177C159.651 23.1496 160.005 24.0934 160.005 25.249C160.005 26.1157 159.833 26.8958 159.489 27.5892C159.145 28.2825 158.668 28.87 158.056 29.3515C157.445 29.8138 156.709 30.1701 155.85 30.4205C154.99 30.6901 154.045 30.8249 153.013 30.8249C151.026 30.8249 149.068 30.2568 147.139 29.1204L149.03 25.4224C150.482 26.4239 151.857 26.9247 153.156 26.9247C153.634 26.9247 154.026 26.8187 154.331 26.6069C154.637 26.395 154.79 26.1254 154.79 25.7979C154.79 25.6053 154.761 25.4513 154.704 25.3357C154.665 25.2009 154.57 25.0853 154.417 24.989C154.264 24.8734 154.035 24.7771 153.729 24.7001C153.443 24.6038 153.061 24.5075 152.583 24.4112C150.979 24.0838 149.852 23.6022 149.202 22.9666C148.572 22.3118 148.256 21.4162 148.256 20.2798C148.256 19.4516 148.409 18.7101 148.715 18.0552C149.021 17.3811 149.46 16.8129 150.033 16.3507C150.606 15.8884 151.294 15.5321 152.096 15.2817C152.918 15.0313 153.825 14.9061 154.818 14.9061C156.442 14.9061 158.018 15.2239 159.546 15.8595L157.798 19.2686ZM167.821 15.455V23.8045C167.821 25.6342 168.7 26.5491 170.458 26.5491C172.215 26.5491 173.094 25.6342 173.094 23.8045V15.455H178.28V24.8157C178.28 26.8188 177.621 28.3211 176.303 29.3226C175.004 30.3242 173.055 30.8249 170.458 30.8249C167.86 30.8249 165.901 30.3242 164.583 29.3226C163.284 28.3211 162.635 26.8188 162.635 24.8157V15.455H167.821Z" fill="url(#paint3_linear_6253_26914)"/>
<defs>
<linearGradient id="paint0_linear_6253_26914" x1="199.771" y1="3.66773" x2="185.16" y2="1.37557" gradientUnits="userSpaceOnUse">
<stop stop-color="#7372B8"/>
<stop offset="1" stop-color="#A17FE8" stop-opacity="0.2"/>
</linearGradient>
<linearGradient id="paint1_linear_6253_26914" x1="196.892" y1="24.5048" x2="190.029" y2="23.4098" gradientUnits="userSpaceOnUse">
<stop stop-color="#7372B8"/>
<stop offset="1" stop-color="#A17FE8" stop-opacity="0.2"/>
</linearGradient>
<linearGradient id="paint2_linear_6253_26914" x1="178.838" y1="2.25727" x2="168.543" y2="0.61468" gradientUnits="userSpaceOnUse">
<stop stop-color="#7372B8"/>
<stop offset="1" stop-color="#A17FE8" stop-opacity="0.2"/>
</linearGradient>
<linearGradient id="paint3_linear_6253_26914" x1="-58.9874" y1="13.0347" x2="223.045" y2="32.9774" gradientUnits="userSpaceOnUse">
<stop offset="0.0001" stop-color="#A100A4"/>
<stop offset="0.556" stop-color="#57B1CC"/>
<stop offset="1" stop-color="#A0CDFF"/>
</linearGradient>
</defs>
</svg>
