<svg width="20" height="20" viewBox="0 0 20 20" fill="none" xmlns="http://www.w3.org/2000/svg">
<path d="M19.4582 9.68579L19.4582 9.68588C19.5022 9.78497 19.525 9.89219 19.525 10.0006C19.525 10.109 19.5022 10.2163 19.4582 10.3153L19.4582 10.3154C19.4268 10.3861 18.7561 11.8716 17.2667 13.3609C15.2794 15.3479 12.7654 16.4 9.99998 16.4C7.23461 16.4 4.72055 15.3479 2.73328 13.3608L2.83934 13.2548L2.73328 13.3608C1.24389 11.8716 0.573213 10.3861 0.541773 10.3154L0.541762 10.3153C0.497744 10.2163 0.475 10.109 0.475 10.0006C0.475 9.89219 0.497744 9.78497 0.541762 9.68588L0.541801 9.6858C0.573203 9.61523 1.24379 8.12933 2.73319 6.63985L19.4582 9.68579ZM19.4582 9.68579C19.4268 9.61523 18.7562 8.12932 17.2668 6.63985M19.4582 9.68579L17.2668 6.63985M17.2668 6.63985C15.2795 4.65234 12.7654 3.6 9.99998 3.6M17.2668 6.63985L9.99998 3.6M9.99998 3.6C7.2346 3.6 4.72047 4.65234 2.73319 6.63985L9.99998 3.6ZM16.1707 7.7358L16.1707 7.73581L16.1707 7.73584C17.0734 8.6386 17.628 9.53871 17.8808 10.0006C17.6281 10.4621 17.0735 11.3621 16.1707 12.2648C14.4686 13.9667 12.3465 14.85 9.99998 14.85C7.65346 14.85 5.53139 13.9667 3.82923 12.2648C2.92642 11.3621 2.37181 10.4621 2.11912 10.0006C2.37188 9.53879 2.92634 8.63889 3.82881 7.73626C3.82895 7.73612 3.82909 7.73597 3.82924 7.73583L3.82927 7.7358C5.53145 6.03342 7.65356 5.15 9.99998 5.15C12.3464 5.15 14.4685 6.03342 16.1707 7.7358ZM5.78748 9.99911V9.99928V10.0007C5.78748 10.8338 6.03454 11.6483 6.49742 12.341C6.96029 13.0338 7.61819 13.5737 8.38793 13.8925C9.15766 14.2114 10.0047 14.2948 10.8218 14.1322C11.6389 13.9697 12.3895 13.5685 12.9787 12.9794C13.5678 12.3902 13.969 11.6397 14.1315 10.8225C14.2941 10.0054 14.2107 9.15837 13.8918 8.38863C13.573 7.6189 13.0331 6.961 12.3403 6.49812C11.6888 6.06277 10.9296 5.81834 10.1484 5.7908L10.1484 5.78802L9.99998 5.78819H9.99925H9.84998V5.79097C8.78749 5.82956 7.7766 6.26855 7.02222 7.02293C6.23279 7.81236 5.78874 8.88269 5.78748 9.99911ZM9.99998 7.33819C10.5266 7.33819 11.0413 7.49434 11.4792 7.7869C11.917 8.07946 12.2583 8.49528 12.4598 8.98179C12.6613 9.4683 12.7141 10.0036 12.6113 10.5201C12.5086 11.0366 12.255 11.511 11.8827 11.8834C11.5103 12.2557 11.0359 12.5093 10.5194 12.612C10.0029 12.7148 9.4676 12.662 8.98109 12.4605C8.49458 12.259 8.07875 11.9177 7.78619 11.4799C7.49367 11.0421 7.33751 10.5274 7.33748 10.0009C7.33828 9.29492 7.61906 8.61812 8.11824 8.11894C8.61736 7.61982 9.29408 7.33904 9.99994 7.33819H9.99998Z" fill="#9250D3" stroke="#9250D3" stroke-width="0.3"/>
</svg>
