<svg width="28" height="28" viewBox="0 0 28 28" fill="none" xmlns="http://www.w3.org/2000/svg">
<g clip-path="url(#clip0_6331_38228)">
<path d="M14 0C6.26795 0 0 6.26795 0 14C0 21.732 6.26795 28 14 28C21.732 28 28 21.732 28 14C28 6.26795 21.732 0 14 0Z" fill="#40B3E0"/>
<path d="M20.8122 8.05244L18.3117 20.6598C18.3117 20.6598 17.962 21.5341 17.0003 21.1144L11.2299 16.6904L9.13162 15.6763L5.59946 14.4872C5.59946 14.4872 5.0574 14.2949 5.0049 13.8752C4.95251 13.4556 5.61696 13.2283 5.61696 13.2283L19.6581 7.72016C19.6581 7.72016 20.8122 7.2131 20.8122 8.05244Z" fill="white"/>
<path d="M10.7856 20.5198C10.7856 20.5198 10.6172 20.5041 10.4073 19.8395C10.1975 19.1751 9.13086 15.6779 9.13086 15.6779L17.6115 10.2923C17.6115 10.2923 18.1011 9.995 18.0836 10.2923C18.0836 10.2923 18.171 10.3447 17.9087 10.5895C17.6465 10.8343 11.2466 16.5871 11.2466 16.5871" fill="#D2E5F1"/>
<path d="M13.4422 18.3882L11.1598 20.4692C11.1598 20.4692 10.9814 20.6046 10.7861 20.5197L11.2232 16.6543" fill="#B5CFE4"/>
</g>
<defs>
<clipPath id="clip0_6331_38228">
<rect width="28" height="28" fill="white"/>
</clipPath>
</defs>
</svg>
