<svg width="28" height="28" viewBox="0 0 28 28" fill="none" xmlns="http://www.w3.org/2000/svg">
<g clip-path="url(#clip0_6331_38217)">
<path d="M14 28C21.732 28 28 21.732 28 14C28 6.26801 21.732 0 14 0C6.26801 0 0 6.26801 0 14C0 21.732 6.26801 28 14 28Z" fill="#9146FF"/>
<path d="M19.8764 14.0284L17.6321 16.1574H15.3849L13.4185 18.0202V16.1574H10.8904V8.17972H19.8764V14.0284ZM10.3286 7.11523L7.51953 9.77348V19.3479H10.8904V22.0061L13.6994 19.3479H15.9467L21 14.5607V7.11523H10.3286ZM18.1939 10.1253H17.0703V13.3158H18.1939V10.1253ZM13.9803 10.1106H15.104V13.3011H13.9803V10.1106Z" fill="white"/>
</g>
<defs>
<clipPath id="clip0_6331_38217">
<rect width="28" height="28" fill="white"/>
</clipPath>
</defs>
</svg>
