<svg width="28" height="28" viewBox="0 0 28 28" fill="none" xmlns="http://www.w3.org/2000/svg">
<circle cx="14" cy="14" r="14" fill="#0077FF"/>
<rect x="3.87988" y="3.88086" width="20.24" height="20.24" rx="7.04001" fill="white"/>
<g clip-path="url(#clip0_6331_38234)">
<path d="M3 13.56C3 8.58195 3 6.09295 4.54648 4.54648C6.09295 3 8.58195 3 13.56 3H14.44C19.4181 3 21.907 3 23.4535 4.54648C25 6.09295 25 8.58195 25 13.56V14.44C25 19.4181 25 21.907 23.4535 23.4535C21.907 25 19.4181 25 14.44 25H13.56C8.58195 25 6.09295 25 4.54648 23.4535C3 21.907 3 19.4181 3 14.44V13.56Z" fill="#0077FF"/>
<path d="M14.4155 19.7869C8.5092 19.7869 5.14037 15.7378 5 9H7.95857C8.05575 13.9453 10.2368 16.0401 11.9645 16.472V9H14.7504V13.2651C16.4564 13.0815 18.2486 11.1379 18.8533 9H21.6391C21.1748 11.6346 19.2313 13.5782 17.8492 14.3773C19.2313 15.0251 21.4449 16.7204 22.2871 19.7869H19.2205C18.5618 17.7353 16.9207 16.1481 14.7504 15.9321V19.7869H14.4155Z" fill="white"/>
</g>
<defs>
<clipPath id="clip0_6331_38234">
<rect width="22" height="22" fill="white" transform="translate(3 3)"/>
</clipPath>
</defs>
</svg>
